<svg aria-hidden="true" style="position: absolute; width: 0; height: 0; overflow: hidden;" version="1.1" xmlns="http://www.w3.org/2000/svg" xmlns:xlink="http://www.w3.org/1999/xlink">
<defs>
<symbol id="icon-hello" viewBox="0 0 41 32">
<path fill="#fff" style="fill: var(--color1, #fff)" d="M26.348 13.538c-0.067 0.481-0.18 0.844 0.009 1.236-0.243 1.243-0.762 2.442-1.055 3.712 0.027 0.113 0.048 0.245 0.082 0.402-0.099 0.116-0.197 0.232-0.394 0.464l-0.863 2.767c-0.031 0.367 0.269 0.668 0.142 0.943 0.213 0.316 0.452 0.348 0.667 0.393 0.588-0.154 1.066-0.488 1.46-0.952 0.369-0.451 0.872-0.798 1.076-1.384 0.048-0.153 0.247-0.259 0.395-0.401 0.223-0.58 0.495-1.186 0.602-1.927-0.079-0.212-0.184-0.475-0.308-0.743-0.092-0.237-0.002-0.461 0.007-0.688s-0.040-0.472-0.069-0.711l0.256-0.82c0.142-0.123 0.266-0.253 0.439-0.409 0.071-0.229 0.199-0.504 0.307-0.784 0.191-0.213 0.388-0.445 0.672-0.755 0.528-0.361 1.187-0.743 1.931-0.996l1.213 0.373c0.415 0.399 0.825 0.818 1.234 1.237 0.064 0.459 0.261 0.896 0.106 1.392-0.066 0.21 0.064 0.459 0.107 0.723l-0.887 2.843c-0.148 0.143-0.291 0.266-0.495 0.454-0.060 0.191-0.187 0.465-0.301 0.765-0.432 0.453-0.864 0.905-1.302 1.377-0.717-0.032-1.334-0.452-2.071-0.553-0.864 0.905-1.759 1.843-2.623 2.749-0.269 0.064-0.494 0.12-0.72 0.176-0.231 0.075-0.43 0.181-0.668 0.276l-1.213-0.373c-0.299-0.238-0.513-0.618-1.010-0.624-0.241 0.24-0.501 0.473-0.773 0.745-0.127 0.275-0.272 0.606-0.423 0.957-0.448 0.239-0.922 0.49-1.395 0.742-0.586-0.117-1.167-0.254-1.699-0.48-0.122-0.142-0.225-0.278-0.347-0.42-0.101-0.010-0.22-0.026-0.34-0.042-0.119 0.047-0.186 0.131-0.241 0.24-0.157 0.37-0.25 0.801-0.636 1.038-0.272 0.606-0.742 1.047-1.18 1.519-0.376 0.407-0.78 0.701-1.393 0.868l-1.156-0.355c-0.234-0.114-0.328-0.414-0.501-0.656-0.129-0.186-0.338-0.313-0.486-0.505s-0.265-0.416-0.193-0.645c0.113-0.363-0.031-0.7-0.030-1.034-0.012-0.359 0.095-0.703-0.069-1.109 0.193-0.819 0.461-1.678 0.761-2.505 0.234-0.284 0.462-0.548 0.752-0.877 0.249-0.133 0.567-0.286 0.835-0.413 0.552-0.039 0.983 0.177 1.4 0.305 0.447 0.43 0.375 0.994 0.447 1.497-0.087 0.078-0.173 0.156-0.241 0.24 0.028 0.176 0.056 0.352 0.058 0.478-0.057 0.317-0.295 0.411-0.486 0.624-0.132 0.357-0.27 0.733-0.426 1.166-0.165 0.263-0.533 0.443-0.589 0.823-0.069 0.355-0.367 0.577-0.512 0.909 0.078 0.149 0.131 0.312 0.228 0.467 0.11 0.18 0.531 0.163 0.603-0.003 0.217-0.561 0.707-0.933 0.942-1.488 0.048-0.153 0.241-0.24 0.389-0.382 0.138-0.376 0.282-0.771 0.426-1.166 0.123-0.129 0.241-0.24 0.42-0.415l0.357-1.145c-0.062-0.667-0.312-1.33-0.148-2.053 0.048-0.153-0.056-0.352-0.103-0.534 0.125-0.401 0.212-0.813 0.318-1.22-0.034-0.157-0.087-0.32-0.141-0.545 0.076-0.311 0.14-0.647 0.203-0.983-0.041-0.201-0.075-0.358-0.103-0.534 0.264-1.111 0.603-2.199 1.006-3.225 0.112-0.091 0.198-0.169 0.298-0.222s0.218-0.1 0.318-0.153c0.307-0.052 0.573 0.093 0.896 0.192 0.256 0.246 0.543 0.522 0.863 0.83 0.141 0.545 0.321 1.102 0.218 1.698-0.047 0.216 0.064 0.459 0.088 0.717-0.083 0.267-0.154 0.559-0.218 0.832 0.028 0.176 0.056 0.352 0.085 0.528-0.087 0.078-0.173 0.156-0.316 0.279-0.46 1.406-0.937 2.87-1.428 4.308-0.129 0.148-0.253 0.278-0.351 0.394 0.131 0.647 0.13 1.315 0.672 1.775 0.676-0.169 1.127-0.616 1.649-1.291 0.048-0.153 0.206-0.46 0.345-0.772 0.142-0.124 0.266-0.253 0.42-0.415l0.363-1.164c-0.119-0.35-0.244-0.681-0.363-1.032 0.1-0.387 0.206-0.794 0.287-1.187-0.204-0.544-0.024-1.053 0.094-1.498-0.048-0.245-0.095-0.427-0.129-0.584 0.089-0.286 0.16-0.578 0.23-0.87-0.034-0.157-0.062-0.333-0.109-0.515 0.093-0.829 0.45-1.576 0.626-2.338-0.047-0.182-0.055-0.289-0.095-0.427 0.299-0.493 0.752-0.877 1.166-1.273 0.37-0.054 0.68 0.084 1.041 0.257 0.461 0.518 0.662 1.207 1.057 1.872l0.038 0.012zM33.016 16.131c-0.034-0.157-0.080-0.276-0.082-0.402-0.015-0.485-0.173-0.91-0.444-1.307-0.058-0.081-0.166-0.135-0.262-0.227-0.448 0.239-0.922 0.49-1.32 0.703-0.166 0.2-0.271 0.335-0.375 0.47-0.123 0.129-0.241 0.24-0.334 0.337l-0.47 1.507c0.154 0.57 0.57 0.97 0.577 1.411-0.044 0.342-0.072 0.563-0.076 0.709 0.138 0.356 0.237 0.638 0.59 0.704 0.301-0.033 0.524-0.215 0.753-0.417 0.093-0.431 0.39-0.717 0.698-1.040l0.762-2.442-0.019-0.006zM24.584 12.933c0 0-0.224 0.119-0.254 0.215-0.191 0.611-0.387 1.24-0.578 1.851 0.047 0.182 0.081 0.339 0.135 0.564-0.106 0.407-0.23 0.87-0.3 1.162 0.044 0.39 0.055 0.623 0.090 0.843 0.015 0.151 0.073 0.232 0.161 0.217 0.038 0.012 0.119-0.047 0.149-0.080 0.158-0.307 0.246-0.656 0.582-0.867-0.028-0.176-0.062-0.333-0.084-0.528 0.185-0.592 0.337-1.214 0.515-1.849-0.082-0.402-0.083-0.799-0.040-1.204 0.016-0.183-0.187-0.267-0.357-0.319l-0.019-0.006zM19.018 19.189c0.454-0.99 0.635-1.833 0.86-2.622-0.132-0.375-0.126-0.729-0.056-1.084 0.054-0.172-0.106-0.325-0.283-0.359-0.133-0.041-0.232 0.012-0.23 0.138 0.009 0.17 0.037 0.346 0.070 0.44-0.231 0.807-0.42 1.544-0.615 2.237 0.075 0.358 0.157 0.696 0.267 1.274l-0.013-0.025z"></path>
<path fill="#fff" style="fill: var(--color1, #fff)" d="M8.488 21.73l0.237-0.76c-0.058-0.226-0.095-0.383-0.146-0.566 0.069-0.291 0.139-0.582 0.19-0.816-0.029-0.321-0.122-0.642-0.078-0.92 0.050-0.297-0.010-0.586-0.090-0.882 0.089-0.285 0.139-0.582 0.208-0.873-0.068-0.333-0.175-0.679-0.082-1.046 0.065-0.209-0.052-0.453-0.087-0.756 0.065-0.209 0.154-0.494 0.243-0.779 0.041-0.133 0.177-0.154 0.244-0.092 0.039 0.22 0.117 0.452 0.13 0.686 0.044 0.409 0.263 0.81 0.133 1.228-0.119 0.38 0.144 0.711 0.062 1.040-0.113 0.361 0.098 0.718 0.043 1.034-0.048 0.36-0.064 0.688 0.017 1.047 0.037 0.157-0.062 0.335-0.056 0.524-0.011 0.309 0.126 0.56 0.379 0.783 0.191-0.129 0.415-0.227 0.592-0.381 0.14-0.103 0.219-0.287 0.372-0.365 0.364-0.201 0.653-0.508 0.989-0.758 0.279-0.206 0.639-0.324 0.926-0.486 0.463 0.101 0.928 0.056 1.137 0.558l-0.148 0.475c-0.094 0.096-0.183 0.173-0.291 0.244-0.261 0.149-0.523 0.298-0.798 0.421-0.23 0.117-0.334 0.314-0.511 0.468-0.214 0.205-0.509 0.323-0.737 0.502-0.197 0.148-0.34 0.333-0.498 0.493s-0.307 0.364-0.498 0.493c-0.279 0.206-0.639 0.324-0.777 0.699-0.119 0.38 0.13 0.686 0.102 1.052-0.022 0.347 0.059 0.706 0.172 1.032 0.121 0.37-0.116 0.714-0.002 1.041 0.121 0.37 0.040 0.7-0.048 1.048-0.036 0.114-0.077 0.247-0.042 0.341 0.213 0.42-0.106 0.821 0.029 1.217 0.080 0.295 0.056 0.579 0.025 0.883-0.026 0.221 0.038 0.428 0.063 0.623-0.411 0.353-0.786 0.383-1.231 0.018 0 0-0.053-0.037-0.041-0.075 0.054-0.587 0.018-1.161-0.147-1.732-0.101-0.364 0.155-0.702 0.002-1.041-0.125-0.288-0.010-0.586 0.033-0.865-0.242-0.533-0.037-1.053 0.078-1.559 0.036-0.114 0.052-0.234 0.079-0.392-0.096-0.175-0.205-0.375-0.334-0.582-0.553 0.601-1.315 0.908-1.874 1.736l-0.249 0.798c0.010 0.107-0.026 0.221 0.003 0.334 0.101 0.573 0.305 1.156 0.122 1.745 0.091 0.465 0.182 0.931 0.281 1.44-0.071 0.228-0.121 0.525-0.19 0.816 0.031 0.176 0.088 0.339 0.099 0.509 0.027 0.258-0.182 0.444-0.448 0.404-0.118-0.036-0.235-0.072-0.353-0.108-0.316-0.16-0.399-0.581-0.744-0.645-0.056-0.579 0.171-1.030 0.237-1.448-0.077-0.44-0.122-0.85-0.199-1.29 0.063-0.064 0.132-0.147 0.201-0.23 0.089-0.285-0.079-0.503-0.528-0.787-0.316 0.049-0.558 0.203-0.759 0.433-0.504 0.512-1.001 1.004-1.485 1.522-0.321 0.339-0.661 0.672-1.129 0.861-0.346 0.144-0.605 0.355-0.785 0.654-0.157-0.048-0.281-0.065-0.404-0.083-0.25-0.369 0.019-0.681 0.12-1.005 0.069-0.083 0.124-0.191 0.213-0.268 0.499-0.43 0.86-0.965 1.393-1.363 0.121-0.525 0.569-0.721 0.942-1.023 0.494-0.411 0.926-0.902 1.373-1.369 0.163-0.179 0.34-0.333 0.529-0.525l0.457-1.463c-0.195-0.477-0.1-0.989-0.287-1.421 0.252-0.464-0.118-0.932 0.025-1.388 0.095-0.304-0.036-0.573-0.084-0.901 0.077-0.247 0.146-0.538 0.216-0.829-0.089-0.402-0.179-0.805-0.243-1.22-0.070-0.396 0.080-0.808-0.048-1.223-0.086-0.276 0.009-0.58 0.367-0.762 0.178 0.325 0.342 0.626 0.526 0.932-0.011 0.309-0.080 0.6-0.039 0.884 0.072 0.459 0.228 0.924 0.189 1.391-0.044 0.486 0.053 0.933 0.17 1.385 0.103 0.427-0.080 0.808 0.023 1.236 0.089 0.402 0.224 0.798 0.178 1.221-0.014 0.183-0.107 0.342-0.011 0.517 0.014 0.025 0.086 0.068 0.112 0.055 0.116-0.027 0.251-0.048 0.34-0.125 0.619-0.539 1.339-0.984 1.896-1.667l0.008 0.044z"></path>
<path fill="#fff" style="fill: var(--color1, #fff)" d="M39.427 13.849c-0.127 0.163-0.276 0.226-0.558 0.212-0.285-0.233-0.616-0.526-0.945-0.798-0.031-0.499-0.062-0.957-0.091-1.376-0.134-0.197-0.223-0.355-0.335-0.552l-0.022-1.158c-0.112-0.197-0.223-0.335-0.379-0.571-0.037-0.798-0.076-1.696-0.137-2.634-0.090-0.158-0.201-0.355-0.358-0.611l-0.036-1.857c-0.133-0.197-0.223-0.355-0.379-0.571-0.011-0.579-0.067-1.237-0.102-1.935-0.090-0.158-0.223-0.355-0.335-0.552-0.006-0.319-0.011-0.599-0.017-0.898-0.002-0.080 0.126-0.203 0.233-0.245s0.281-0.006 0.347 0.032c0.285 0.233 0.55 0.487 0.77 0.682 0.068 0.138 0.111 0.177 0.113 0.237 0.030 0.419 0.059 0.818 0.11 1.216 0.112 0.177 0.201 0.315 0.334 0.492 0.009 0.499 0.063 1.037 0.095 1.576 0.112 0.197 0.224 0.415 0.336 0.612 0.015 0.779 0.073 1.536 0.108 2.255 0.134 0.197 0.223 0.355 0.335 0.532 0.012 0.639 0.068 1.297 0.102 1.955 0.089 0.138 0.178 0.296 0.268 0.454-0.041 0.101-0.104 0.202-0.166 0.343 0.067 0.138 0.156 0.276 0.269 0.513 0.006 0.319 0.057 0.738 0.087 1.177 0.354 0.432 0.429 0.929 0.353 1.49l-0-0.020z"></path>
<path fill="#fff" style="fill: var(--color1, #fff)" d="M40.199 20.936c-0.324-0.204-0.648-0.408-0.614-0.872 0.104-0.129 0.208-0.279 0.333-0.429s0.317-0.176 0.509-0.159c0.432 0.286 0.78 0.637 0.599 1.231-0.293 0.26-0.293 0.26-0.828 0.229z"></path>
</symbol>
<symbol id="icon-wow" viewBox="0 0 51 32">
<path fill="#0db5ea" style="fill: var(--color2, #0db5ea)" d="M8.71 2.251c1.056-0.413 1.251-1.597 2.054-2.157 0.448 0.114 0.453 0.531 0.583 0.847-0.036 0.473-0.129 0.905-0.417 1.3-0.77 1.031-1.539 2.062-2.266 3.106-0.467 0.663-1.018 1.3-1.33 2.057-0.204 0.49-0.561 0.957-0.905 1.381-0.73 0.836-1.305 1.765-1.922 2.681 0.48 0.447 0.766-0.157 1.114-0.234 0.165-0.226 0.315-0.479 0.466-0.732 0.555-0.29 1.109-0.65 1.678-0.983 0.137-0.211 0.302-0.437 0.467-0.663 0.306-0.090 0.7 0.122 0.875-0.353 0.135-0.35 0.496-0.539 0.829-0.713 0.416-0.218 0.691-0.571 0.994-0.939 0.206-0.282 0.595-0.416 0.817-0.602 0.266 0.035 0.475 0.030 0.643 0.082 0.574 0.153 1.027 0.614 1.047 1.127 0.034 0.54-0.029 1.097-0.022 1.652-0.283 0.811-0.82 1.476-1.442 1.976-0.526 0.415-0.657 1.112-1.211 1.471-0.377 1.174-1.288 2-1.918 3.028-0.383 0.62-0.865 1.186-1.263 1.778 0.105 0.608-0.25 1.282 0.148 1.842 0.209-0.005 0.434 0.087 0.573 0.014 0.916-0.479 1.804-0.944 2.636-1.38 0.22-0.324 0.357-0.536 0.535-0.803 0.722-0.378 1.442-0.825 2.149-1.23 0.151-0.253 0.315-0.479 0.535-0.803 0.568-0.332 1.178-0.721 1.719-1.039 0.22-0.324 0.384-0.55 0.549-0.776 0.402-0.245 0.804-0.491 1.206-0.736 0.151-0.253 0.315-0.479 0.466-0.732 0.443-0.302 0.914-0.618 1.288-0.849 0.192-0.31 0.357-0.536 0.521-0.761 0.402-0.245 0.804-0.491 1.178-0.721 0.165-0.226 0.315-0.479 0.467-0.663 0.651-0.445 1.261-0.834 1.856-1.251 0.311-0.826 1.356-0.989 1.652-1.912 0.527-0.276 1.11-0.581 1.693-0.886 0.139-0.073 0.363 0.019 0.545 0.029 0.313 0.464 0.556 0.931 0.605 1.568-0.151 0.184-0.316 0.41-0.453 0.621-0.165 0.226-0.288 0.465-0.466 0.732l-2.137 1.118c-0.192 0.31-0.342 0.563-0.493 0.816-0.374 0.231-0.748 0.461-1.15 0.707-0.409 0.842-1.424 1.199-1.763 2.039-0.596 0.347-1.165 0.679-1.733 1.012-0.137 0.211-0.288 0.465-0.535 0.803-0.305 0.16-0.694 0.363-1.096 0.608-0.416 0.218-0.805 0.421-1.123 0.623-0.288 0.395-0.368 0.786-0.77 0.961-0.458 0.205-0.663 0.626-0.937 1.049-0.624 0.361-1.234 0.75-1.774 1.068-0.22 0.324-0.384 0.55-0.576 0.86l-4.551 2.382c-1.060 0.136-1.558-0.685-2.303-1.028-0.214-0.342-0.148-0.69-0.167-1.064-0.046-0.36-0.19-0.703-0.335-1.116 0.236-1.24 0.753-2.418 1.198-3.733 0.426-0.607 0.892-1.27 1.359-1.933-0.386-0.74-0.386-0.74-0.825-0.092-0.069 0.071-0.11 0.127-0.206 0.282l-1.61 0.842c-0.192 0.31-0.329 0.521-0.548 0.845-1.166 0.61-2.329 1.359-3.635 1.903-0.083 0.044-0.167 0.018-0.265 0.034-0.196-0.037-0.253-0.147-0.2-0.384 0.066-0.279-0.007-0.555-0.191-0.773-0.567-0.68-0.667-0.872-0.267-1.256 0.566-0.54 0.584-1.387 1.094-1.899 0.483-0.497 0.558-1.165 0.928-1.742 0.208-0.144 0.443-0.302 0.748-0.531 0.204-0.421 0.352-0.952 0.681-1.403 0.467-0.663 1.003-1.328 1.47-1.991 0.206-0.282 0.581-0.444 0.829-0.713s0.285-0.673 0.632-0.889c0.25-0.131 0.5-0.261 0.664-0.487 0.344-0.424 0.632-0.889 0.905-1.381 0.192-0.31 0.313-0.687 0.449-0.968l-0.041 0.056z"></path>
<path fill="#0db5ea" style="fill: var(--color2, #0db5ea)" d="M49.996 16.315c0.514 0.506 0.731 0.992 0.823 1.578-0.417 0.57-0.705 1.25-1.363 1.7-0.602 0.421-0.875 1.198-1.676 1.441-0.155 0.046-0.365 0.191-0.419 0.36-0.26 0.665-1.034 0.823-1.338 1.405-0.345 0.639-0.992 0.836-1.635 1.384-0.111 0.129-0.305 0.442-0.542 0.742-0.406 0.248-0.813 0.496-1.191 0.729-0.159 0.859-1.146 0.952-1.49 1.661-0.317 0.624-1.036 0.753-1.524 1.185-0.152 0.256-0.319 0.484-0.513 0.797-1.5 0.82-3.057 1.67-4.473 2.446-0.69 0.114-1.101-0.058-1.542-0.356l-0.606-1.163c-0.094-0.797 0.406-1.481 0.228-2.234 0.194-0.313 0.345-0.639 0.511-0.937-0.388-0.607-0.388-0.607-0.838-0.443-0.168 0.088-0.337 0.176-0.505 0.264-0.208 0.285-0.445 0.585-0.653 0.87-0.434 0.263-0.798 0.523-1.176 0.757-0.18 0.271-0.347 0.499-0.514 0.727l-1.262 0.661c-0.451 0.025-0.903-0.021-1.318-0.473-0.034-0.476-0.096-1.007-0.061-1.554 0.024-0.365 0.203-0.706 0.34-1.059 0.547-0.321 0.539-0.952 0.83-1.421 0.36-0.541 0.664-1.123 1.138-1.583 0.502-0.474 0.494-1.175 0.925-1.718 0.599-0.701 1.211-1.444 1.412-2.36 0.542-0.742 1.083-1.483 1.625-2.225 0.382 0.047 0.498 0.338 0.431 0.62-0.106 0.549-0.298 1.072-0.447 1.608-0.082 0.254-0.134 0.634-0.316 0.764-0.657 0.52-0.59 1.401-1.092 1.946-0.543 0.601-0.662 1.333-0.837 2.024 0.072 0.138 0.229 0.233 0.439 0.158 0.589-0.308 1.178-0.617 1.683-0.881 0.194-0.313 0.36-0.541 0.526-0.839 0.87-0.455 1.766-0.995 2.677-1.507 0.236-0.3 0.445-0.585 0.639-0.828l1.346-0.705c0.34 0.104 0.708 0.193 0.991 0.257 0.072 0.138 0.144 0.207 0.187 0.29 0.275 0.526-0.213 1.098 0.173 1.495-0.583 0.799-1.083 1.483-1.555 2.153-0.375 0.513-1.035 0.753-1.338 1.405-0.276 0.567-0.778 1.041-1.251 1.641-0.136 0.424-0.285 0.96-0.462 1.51 0.198 0.037 0.397 0.145 0.481 0.101 0.589-0.308 1.178-0.617 1.711-0.895 0.18-0.271 0.304-0.512 0.471-0.74 0.378-0.233 0.77-0.509 1.176-0.757 0.237-0.3 0.445-0.585 0.639-0.898 0.589-0.308 1.149-0.672 1.667-0.979 0.25-0.342 0.372-0.724 0.737-0.914 0.168-0.088 0.407-0.178 0.448-0.305 0.288-0.75 1.089-0.993 1.519-1.606 0.097-0.156 0.194-0.313 0.305-0.512 0.546-0.321 1.106-0.685 1.681-1.021 0.375-0.513 0.75-1.027 1.153-1.555s1.006-0.809 1.338-1.405c0.291-0.469 0.867-0.665 1.599-0.837l0.085 0.026z"></path>
<path fill="#0db5ea" style="fill: var(--color2, #0db5ea)" d="M29.639 19.045c-0.427 0.536-0.78 0.999-1.148 1.435-0.773 0.3-0.985 1.176-1.672 1.57-0.321 0.168-0.514 0.582-0.793 0.832-0.338 0.351-0.791 0.622-1.299 0.575-0.479-0.062-0.599 0.348-0.877 0.529-0.189-0.006-0.378-0.011-0.682-0.025-0.526 0.275-1.138 0.526-1.766 0.82-0.555 0.29-1.16-0.228-1.571 0.196-1.001-0.137-1.826-0.365-2.636-0.776l-0.527-1.011c0.2-1.043 0.704-2.072 1.078-3.137 0.747-0.565 0.799-1.461 1.373-2.144 0.809-0.945 1.502-1.968 2.268-2.995 0.613-0.321 1.169-0.681 1.782-1.002 0.701-0.367 1.416-0.706 2.102-1.031 1.061-0.034 2.151-0.152 3.206 0.373 0.477 0.272 0.614 1.035 1.309 1.227-0.078 0.563 0.149 1.070 0.245 1.61 0.083 0.444-0.009 0.909-0.029 1.371-0.020 0.532-0.287 1.089-0.393 1.527l0.029 0.055zM25.348 15.379l-2.395 1.253c-0.958 1.301-1.885 2.516-2.769 3.744-0.103 0.158-0.264 0.277-0.396 0.381-0.351 0.183-0.687 0.394-0.994 0.59-0.457 0.621-0.098 1.025 0.422 1.379 0.538-0.038 1.103 0.048 1.657-0.102s1.079-0.356 1.616-0.324c0.177-0.232 0.353-0.463 0.5-0.609 1.183-0.654 2.265-1.29 3.273-1.852 0.574-0.753 1.119-1.42 1.619-2.099 0.28-0.39 0.415-0.843 0.435-1.375l-0.313-0.601c-0.763-0.679-1.668-0.275-2.611-0.372l-0.044-0.012z"></path>
</symbol>
</defs>
</svg>
