<svg width="18" height="20" viewBox="0 0 18 20" fill="none" xmlns="http://www.w3.org/2000/svg">
<path d="M17.1176 16.1429H15C14.6471 14.8571 13.5 14 12.0882 14C10.4118 14 9 15.3714 9 17C9 18.6286 10.4118 20 12.0882 20C13.5 20 14.6471 19.1429 15 17.8571H17.1176C17.6471 17.8571 18 17.4286 18 17C18 16.4857 17.6471 16.1429 17.1176 16.1429ZM12.0882 18.2857C11.3824 18.2857 10.7647 17.6857 10.7647 17C10.7647 16.3143 11.3824 15.7143 12.0882 15.7143C12.7941 15.7143 13.4118 16.3143 13.4118 17C13.4118 17.6857 12.7941 18.2857 12.0882 18.2857Z" fill="#1F1F1F"/>
<path d="M7.14894 16H0.851064C0.340425 16 0 16.5 0 17C0 17.6 0.425532 18 0.851064 18H7.14894C7.65957 18 8 17.5 8 17C8 16.4 7.57447 16 7.14894 16Z" fill="#1F1F1F"/>
<path d="M0.851064 4H7.14894C7.65957 4 8 3.5 8 3C8 2.5 7.57447 2 7.14894 2H0.851064C0.340425 2 0 2.5 0 3C0 3.5 0.425532 4 0.851064 4Z" fill="#1F1F1F"/>
<path d="M12.0882 6C13.5 6 14.6471 5.14286 15 3.85714H17.1176C17.6471 3.85714 18 3.42857 18 3C18 2.57143 17.5588 2.14286 17.1176 2.14286H15C14.6471 0.857143 13.5 0 12.0882 0C10.4118 0 9 1.37143 9 3C9 4.62857 10.4118 6 12.0882 6ZM12.0882 1.71429C12.7941 1.71429 13.4118 2.31429 13.4118 3C13.4118 3.68571 12.7941 4.28571 12.0882 4.28571C11.3824 4.28571 10.7647 3.68571 10.7647 3C10.7647 2.31429 11.3824 1.71429 12.0882 1.71429Z" fill="#1F1F1F"/>
<path d="M0.882353 10.8571H3C3.35294 12.0571 4.5 13 5.91176 13C7.58824 13 9 11.6286 9 10C9 8.37143 7.58824 7 5.91176 7C4.5 7 3.35294 7.85714 3 9.14286H0.882353C0.352941 9.14286 0 9.57143 0 10C0 10.4286 0.441176 10.8571 0.882353 10.8571ZM5.91176 8.71429C6.61765 8.71429 7.23529 9.31429 7.23529 10C7.23529 10.6857 6.61765 11.2857 5.91176 11.2857C5.20588 11.2857 4.58824 10.6857 4.58824 10C4.58824 9.31429 5.20588 8.71429 5.91176 8.71429Z" fill="#1F1F1F"/>
<path d="M17.1398 9H10.8602C10.3441 9 10 9.5 10 10C10 10.5 10.4301 11 10.8602 11H17.1398C17.6559 11 18 10.5 18 10C18 9.5 17.6559 9 17.1398 9Z" fill="#1F1F1F"/>
</svg>
