<svg aria-hidden="true" style="position: absolute; width: 0; height: 0; overflow: hidden;" version="1.1" xmlns="http://www.w3.org/2000/svg" xmlns:xlink="http://www.w3.org/1999/xlink">
<defs>
<symbol id="icon-delete" viewBox="0 0 32 32">
<path d="M7.772 10.342c4.262 0.003 8.391 0.046 12.518-0.016 1.722-0.026 3.454-0.124 5.162-0.405 0.397-0.065 0.889 0.257 0.934 0.666 0.041 0.372 0.040 0.763-0.033 1.13-0.194 0.977-0.502 1.934-0.48 2.942 0.003 0.123-0.014 0.255-0.061 0.371-0.637 1.563-0.886 3.2-1.006 4.86-0.006 0.084 0.016 0.179-0.018 0.251-0.515 1.113-0.461 2.359-0.94 3.488-0.391 0.919-0.484 1.929-0.889 2.861-0.291 0.67-0.691 1.286-1.127 1.833-0.54 0.677-1.49 0.932-2.351 0.956-2.528 0.069-5.061 0.076-7.589-0.005-0.942-0.030-1.788-0.525-2.233-1.389-0.53-1.029-1.152-2.052-1.438-3.148-0.248-0.954-0.715-1.881-0.682-2.9 0.017-0.509-0.246-0.962-0.339-1.453-0.298-1.554-0.043-3.184-0.711-4.682 0.070-1.434-0.237-2.82-0.584-4.202-0.030-0.12-0.007-0.253-0.006-0.378 0.003-0.767 0.003-0.77 0.803-0.788 0.31-0.007 0.621 0.004 1.065 0.008h0.003z"></path>
<path d="M7.735 6.678c0.34 0 0.564-0.019 0.782 0.003 0.981 0.098 1.395-0.395 1.957-1.074 0.825-0.995 1.82-1.82 2.982-2.457 0.113-0.062 0.217-0.198 0.325-0.198 1.646 0.005 3.302-0.644 4.933 0.001 0.594 0.236 1.215 0.455 1.665 0.965 0.764 0.867 1.714 1.71 2.864 2.246 0.565 0.263 0.959 0.527 1.294 0.396 0.785-0.304 1.547 0.115 2.3-0.118 0.287-0.088 0.508 0.063 0.493 0.4-0.010 0.209-0.015 0.417-0.001 0.626 0.022 0.333-0.169 0.436-0.48 0.436-0.884-0.001-1.766 0-2.65 0-0.84 0-1.685-0.070-2.517 0.006-5.125 0.469-10.261 0.152-15.391 0.228-0.394 0.006-0.786 0.057-1.139-0.205-0.192-0.142-0.56-0.157-0.473-0.482 0.059-0.22 0.177-0.435 0.456-0.57 0.376-0.181 0.748-0.277 1.138-0.159 0.465 0.141 0.9 0.041 1.464-0.045h-0.001zM11.99 6.276c0.029 0.431 0.377 0.399 0.677 0.398 2.072-0.004 4.145-0.023 6.217-0.018 0.373 0 0.708-0.302 1.127-0.060 0.148 0.085 0.401-0.157 0.467-0.355 0.056-0.17-0.113-0.26-0.251-0.377-0.445-0.369-0.889-0.751-1.257-1.185-0.305-0.36-0.661-0.499-1.114-0.541-1.235-0.118-2.429 0.263-3.656 0.254-0.237-0.001-0.371 0.206-0.556 0.308-0.64 0.351-1.024 0.969-1.654 1.576h0.001z"></path>
</symbol>
<symbol id="icon-close-cross" viewBox="0 0 32 32">
<path d="M24.943 7.057c0.521 0.521 0.521 1.365 0 1.886l-7.057 7.057 7.057 7.057c0.521 0.521 0.521 1.365 0 1.886s-1.365 0.521-1.886 0l-7.057-7.057-7.057 7.057c-0.521 0.521-1.365 0.521-1.886 0s-0.521-1.365 0-1.886l7.057-7.057-7.057-7.057c-0.521-0.521-0.521-1.365 0-1.886s1.365-0.521 1.886 0l7.057 7.057 7.057-7.057c0.521-0.521 1.365-0.521 1.886 0z"></path>
</symbol>
<symbol id="icon-plus" viewBox="0 0 32 32">
<path d="M16 4c0.736 0 1.333 0.597 1.333 1.333v9.333h9.333c0.736 0 1.333 0.597 1.333 1.333s-0.597 1.333-1.333 1.333h-9.333v9.333c0 0.736-0.597 1.333-1.333 1.333s-1.333-0.597-1.333-1.333v-9.333h-9.333c-0.736 0-1.333-0.597-1.333-1.333s0.597-1.333 1.333-1.333h9.333v-9.333c0-0.736 0.597-1.333 1.333-1.333z"></path>
</symbol>
<symbol id="icon-minus" viewBox="0 0 32 32">
<path d="M4 16c0-0.736 0.597-1.333 1.333-1.333h21.333c0.736 0 1.333 0.597 1.333 1.333s-0.597 1.333-1.333 1.333h-21.333c-0.736 0-1.333-0.597-1.333-1.333z"></path>
</symbol>
<symbol id="icon-burger" viewBox="0 0 32 32">
<path d="M6.667 10.667c0-0.736 0.597-1.333 1.333-1.333h16c0.736 0 1.333 0.597 1.333 1.333s-0.597 1.333-1.333 1.333h-16c-0.736 0-1.333-0.597-1.333-1.333zM6.667 16c0-0.736 0.597-1.333 1.333-1.333h16c0.736 0 1.333 0.597 1.333 1.333s-0.597 1.333-1.333 1.333h-16c-0.736 0-1.333-0.597-1.333-1.333zM6.667 21.333c0-0.736 0.597-1.333 1.333-1.333h16c0.736 0 1.333 0.597 1.333 1.333s-0.597 1.333-1.333 1.333h-16c-0.736 0-1.333-0.597-1.333-1.333z"></path>
</symbol>
<symbol id="icon-quote" viewBox="0 0 32 32">
<path d="M0.727 29.175v-15.357c0-3.466 1.157-6.16 3.472-8.084s5.615-3.108 9.9-3.553v7.488c-2.502 0.35-4.426 1.002-5.771 1.955s-2.237 2.289-2.674 4.006h8.446v13.544h-13.372zM17.9 29.175v-15.357c0-3.466 1.157-6.16 3.472-8.084s5.615-3.108 9.9-3.553v7.488c-2.502 0.35-4.426 1.002-5.771 1.955s-2.237 2.289-2.674 4.006h8.446v13.544h-13.372z"></path>
</symbol>
<symbol id="icon-facebook" viewBox="0 0 32 32">
<path d="M31.963 6.665c-0.059 0.738-0.093 1.378-0.090 1.981 0.004 0.782-0.094 1.562-0.051 2.332 0.021 0.382 0.104 0.716-0.021 1.115-0.112 0.361-0.115 0.804-0.016 1.171 0.366 1.363 0.159 2.74 0.131 4.105-0.010 0.46 0.077 0.903 0.067 1.36-0.042 1.933-0.020 3.866-0.015 5.799 0.002 0.96-0.125 1.905-0.408 2.817-0.152 0.491-0.027 0.985-0.219 1.494-0.461 1.227-1.513 1.83-2.45 2.57-0.201 0.159-0.459 0.102-0.692 0.103-1.278 0.002-2.544 0.084-3.781 0.443-0.258 0.075-0.552 0.029-0.831 0.031-1.233 0.002-2.466 0.009-3.699-0.003-0.389-0.004-0.772 0.040-1.164-0.142-0.586-0.273-1.209 0.075-1.833 0.017-0.346-0.032-0.771 0.238-1.131 0.034-0.387-0.219-0.76 0.312-1.109-0.044-0.873 0.099-1.74-0.065-2.611-0.060-1.241 0.007-2.486-0.081-3.713 0.189-0.833-0.283-1.734-0.080-2.56-0.327-0.399-0.12-0.777-0.143-1.167-0.115-1.191 0.083-2.079-0.441-2.783-1.333-0.292-0.368-0.664-0.656-0.905-1.086-0.475-0.846-0.639-1.769-0.651-2.688-0.016-1.206-0.219-2.434 0.172-3.625-0.419-2.103-0.072-4.233-0.215-6.345-0.075-1.112-0.246-2.219-0.006-3.331 0.086-0.402-0.294-0.732-0.198-1.142 0.24-1.020-0.036-2.039-0.009-3.062 0.027-1.025 0.016-2.052 0.002-3.078-0.009-0.673 0.096-1.285 0.388-1.927 0.386-0.851 0.984-1.569 1.351-2.42 0.074-0.171 0.263-0.462 0.328-0.444 0.598 0.164 0.796-0.555 1.356-0.535 1.571 0.053 3.119-0.22 4.671-0.438 0.235-0.033 0.477-0.017 0.716-0.017 2.347-0.002 4.694-0.017 7.040 0.005 0.759 0.007 1.54 0.256 2.269 0.137 0.761-0.124 1.458 0.228 2.195 0.073 0.381-0.080 0.803 0.087 1.166-0.131 0.366-0.22 0.7 0.271 1.125-0.032 0.365-0.26 0.894-0.001 1.35-0.009 1.107-0.016 2.252-0.225 3.332 0.306 0.297 0.146 0.698 0.12 1.049 0.108 0.421-0.015 0.748 0.115 1.084 0.371 0.845 0.643 1.502 1.309 1.947 2.038 0.089 0.146 0.108 0.286 0.115 0.443 0.011 0.236-0.063 0.548 0.061 0.695 0.638 0.76 0.361 1.643 0.413 2.599l0.001-0.002zM16.454 11.525c-0.664 0.173-1.342 0.060-2.012 0.098-0.23 0.014-0.379 0.115-0.381 0.353-0.004 0.947-0.026 1.896 0.016 2.841 0.025 0.554 0.328 0.901 0.944 0.999 0.27 0.043 0.541 0.081 0.813 0.108 0.853 0.086 1.262 0.503 1.058 1.315-0.294 1.172-0.19 2.341-0.193 3.514-0.001 0.659 0.161 1.332 0.111 1.964-0.12 1.552-0.077 3.101-0.106 4.651-0.011 0.583 0.006 0.588 0.653 0.711 1.319 0.252 2.654 0.14 3.982 0.166 0.405 0.007 0.429-0.273 0.409-0.566-0.121-1.841 0.179-3.695-0.222-5.532-0.124-0.567 0.065-1.203-0.070-1.765-0.143-0.595-0.082-1.187-0.161-1.776-0.075-0.557 0.067-1.137-0.015-1.709-0.051-0.361 0.114-0.585 0.439-0.75 0.293-0.149 0.58-0.226 0.908-0.217 0.557 0.016 1.115 0.006 1.672 0.001 0.659-0.006 0.59-0.034 0.818-0.65 0.221-0.596 0.163-1.229 0.399-1.822 0.138-0.348 0.111-0.758 0.236-1.139 0.162-0.499-0.017-0.586-0.569-0.534-0.488 0.047-0.949 0.282-1.472 0.135-0.485-0.136-0.953-0.362-1.489-0.313-0.266 0.025-0.461-0.192-0.462-0.447-0.005-0.895-0.152-1.798 0.192-2.676 0.078-0.2 0.146-0.299 0.353-0.392 0.907-0.406 1.843-0.544 2.804-0.318 0.346 0.081 0.454-0.033 0.455-0.307 0.010-1.263 0.004-2.527-0.003-3.79-0.001-0.237-0.163-0.394-0.381-0.334-1.481 0.408-3.013 0.159-4.52 0.409-2.177 0.36-2.985 1.225-3.698 2.953-0.44 1.067-0.609 2.246-0.529 3.447 0.028 0.421 0.335 0.803 0.018 1.371v0.001z"></path>
</symbol>
<symbol id="icon-viber" viewBox="0 0 29 32">
<path d="M20.537 25.952c-0.622 0.169-1.234 0.075-1.734 0.463-0.074 0.058-0.197 0.082-0.294 0.073-1.518-0.13-3.007 0.291-4.524 0.225-0.482-0.021-0.913-0.269-1.411-0.221-0.369 0.035-0.631 0.094-0.839 0.46-0.903 1.591-2.286 2.802-3.35 4.27-0.196 0.271-0.509 0.463-0.786 0.664-0.209 0.152-0.471 0.144-0.687 0.029-0.178-0.095-0.099-0.317-0.1-0.483 0-0.208-0.029-0.444 0.055-0.618 0.196-0.408 0.191-0.847 0.106-1.235-0.251-1.143-0.134-2.292-0.163-3.439-0.018-0.71-0.006-0.744-0.704-0.896-0.429-0.094-0.721-0.397-1.072-0.596-0.59-0.335-1.192-0.658-1.724-1.11-0.669-0.569-1.075-1.34-1.629-1.994-0.188-0.222-0.277-0.559-0.338-0.859-0.164-0.805-0.704-1.519-0.561-2.396-0.543-2.016-0.377-4.079-0.413-6.129-0.012-0.687 0.084-1.361 0.219-2.023 0.076-0.373 0.157-0.737 0.186-1.12 0.055-0.71-0.173-1.482 0.399-2.092-0.043-0.988 0.623-1.653 1.064-2.424 0.766-1.339 1.944-2.19 3.297-2.786 0.709-0.312 1.438-0.616 2.124-0.956 0.613-0.303 1.259-0.423 1.857-0.491 1.411-0.157 2.828-0.32 4.269-0.251 0.941 0.045 1.881 0.147 2.819 0.209 1.554 0.101 3.146 0.018 4.645 0.599 0.723-0.174 1.303 0.311 1.939 0.489 0.638 0.177 1.215 0.613 1.788 0.985 0.931 0.604 1.695 1.392 2.258 2.361 0.347 0.596 0.612 1.248 1.006 1.808 0.172 0.243 0.187 0.461 0.247 0.711 0.649 2.695 0.427 5.438 0.479 8.168 0.007 0.369-0.143 0.676-0.215 1.011-0.263 1.223-0.364 2.487-0.809 3.665-0.465 1.231-1.047 2.408-2.060 3.272-0.66 0.563-1.379 1.067-2.118 1.518-0.728 0.444-1.555 0.68-2.391 0.829-0.283 0.050-0.512 0.192-0.834 0.313l-0.001-0.001zM11.345 10.182c0.187-0.547 0.124-1.109-0.14-1.579-0.545-0.973-1.152-1.912-1.769-2.839-0.36-0.541-1.083-0.679-1.654-0.378-0.474 0.251-0.927 0.541-1.44 0.719-0.258 0.090-0.531 0.292-0.586 0.551-0.083 0.385-0.366 0.716-0.383 1.061-0.031 0.611-0.393 1.316 0.273 1.832 0.058 0.49 0.479 0.846 0.489 1.351 0.006 0.308 0.119 0.56 0.4 0.673 0.211 0.085 0.167 0.271 0.247 0.407 0.486 0.831 1.026 1.632 1.484 2.478 0.252 0.466 0.746 0.736 0.951 1.169 0.684 1.444 1.974 2.291 3.046 3.346 0.833 0.818 1.95 1.246 2.876 1.926 1.521 1.118 3.248 1.515 5.027 1.816 0.386 0.065 0.823-0.057 1.046-0.309 0.543-0.614 1.030-1.292 1.449-1.999 0.353-0.597 0.158-1.247-0.423-1.628-0.4-0.263-0.772-0.55-1.114-0.884-0.523-0.511-1.17-0.846-1.787-1.208-0.826-0.484-1.392-0.366-2.025 0.299-0.047 0.050-0.092 0.102-0.137 0.155-0.831 0.959-2.002 1.058-2.905 0.247-0.153-0.137-0.275-0.313-0.489-0.373-0.932-0.262-1.475-1.047-2.157-1.646-0.101-0.088-0.238-0.121-0.25-0.289-0.030-0.415-0.329-0.761-0.583-0.938-0.413-0.288-0.261-0.739-0.514-1.080-0.679-0.914-0.456-1.647 0.519-2.35 0.167-0.121 0.312-0.273 0.548-0.529zM16.466 5.233c0.643-0.036 1.095 0.542 1.724 0.55 0.871 0.616 1.756 1.211 2.431 2.070 0.337 0.429 0.61 0.902 0.929 1.336 0.474 0.643 0.739 1.331 0.782 2.123 0.035 0.657 0.272 1.29 0.21 1.962-0.038 0.41 0.26 0.627 0.565 0.806 0.179 0.104 0.452-0.036 0.465-0.242 0.023-0.381 0.063-0.757-0.043-1.143-0.272-0.989-0.463-2.005-0.783-2.975-0.17-0.513-0.381-1.025-0.661-1.508-1.094-1.885-2.766-3.016-4.698-3.813-1.032-0.426-2.122-0.523-3.226-0.434-0.326 0.026-0.443 0.319-0.264 0.597 0.179 0.28 0.443 0.311 0.727 0.284 0.595-0.056 1.157 0.064 1.845 0.387l-0.002-0.001zM15.995 6.287c-0.46-0.076-0.856 0.238-1.308 0.22-0.111-0.004-0.181 0.072-0.201 0.189-0.021 0.132 0.058 0.193 0.157 0.233 0.221 0.090 0.418 0.253 0.678 0.223 0.489-0.054 0.987 0.114 1.393 0.271 1.224 0.475 2.114 1.454 2.985 2.424 0.046 0.051 0.107 0.113 0.112 0.174 0.071 0.927 0.679 1.718 0.65 2.671-0.004 0.144 0.041 0.28 0.194 0.333 0.177 0.061 0.333 0.021 0.474-0.11 0.171-0.159 0.218-0.361 0.185-0.574-0.095-0.611-0.206-1.219-0.317-1.826-0.077-0.424-0.284-0.764-0.593-1.069-0.266-0.261-0.503-0.572-0.683-0.901-0.442-0.812-1.204-1.216-1.957-1.614-0.5-0.264-1.057-0.418-1.769-0.644h-0.001zM18.511 10.7c0.038-0.494-0.074-0.999-0.503-1.209-0.466-0.227-0.86-0.554-1.308-0.781-0.414-0.21-0.891-0.27-1.363-0.106-0.146 0.050-0.243 0.12-0.262 0.275-0.018 0.149 0.020 0.284 0.159 0.352 0.214 0.104 0.429 0.196 0.657 0.275 1.090 0.38 1.969 0.996 2.071 2.301 0.021 0.275 0.176 0.446 0.345 0.621 0.158 0.163 0.444 0.111 0.472-0.108 0.064-0.509 0.22-1.040-0.266-1.622l-0.001 0.001z"></path>
</symbol>
<symbol id="icon-telegram" viewBox="0 0 32 32">
<path d="M8.842 0.301c0.557-0.018 1.017-0.121 1.484 0.1 0.305 0.145 0.68 0.005 1.030-0.041 1.516-0.202 3.023-0.595 4.579-0.168 0.517 0.141 1.099 0.048 1.651 0.049 2.645 0.006 5.29 0.021 7.934 0.002 0.829-0.006 1.609 0.352 2.442 0.256 0.822 0.529 1.807 0.71 2.422 1.674 0.922 1.445 1.666 3.165 1.612 4.658-0.065 1.765-0.061 3.534-0.009 5.299 0.038 1.274-0.039 2.543-0.011 3.816 0.027 1.256-0.011 2.513-0.015 3.769-0.004 1.297-0.016 2.592 0.005 3.889 0.012 0.823-0.326 1.593-0.294 2.425 0.023 0.625-0.085 1.264-0.199 1.884-0.141 0.773-0.374 1.528-1.049 2.025-0.348 0.257-0.46 0.713-0.865 0.916-0.591 0.297-1.17 0.542-1.873 0.5-1.234-0.076-2.439 0.24-3.658 0.377-1.306 0.146-2.64 0.11-3.96 0.079-1.044-0.024-2.071 0.117-3.105 0.178-0.55 0.033-1.082 0-1.632-0.046-1.29-0.111-2.604-0.214-3.884-0.079-0.827 0.088-1.603-0.083-2.403-0.067-0.767 0.016-1.53 0.006-2.294-0.144-0.494-0.096-1.017-0.066-1.527-0.063-0.336 0-0.721 0.171-0.999 0.057-0.958-0.392-1.944-0.752-2.618-1.633-0.378-0.494-0.673-1.010-0.963-1.559-0.562-1.063-0.363-2.194-0.486-3.285-0.104-0.933 0.050-1.893 0.053-2.841 0.001-0.5 0.112-1.021-0.172-1.495-0.037-0.061-0.040-0.156-0.029-0.23 0.173-1.108-0.022-2.225 0.15-3.345 0.14-0.908 0.223-1.865-0.108-2.786-0.076-0.212-0.044-0.464-0.044-0.7-0.005-2.278-0.015-4.555-0.005-6.832 0.004-0.854 0.156-1.717 0.314-2.536 0.204-1.052 0.811-2.034 1.697-2.724 0.423-0.329 0.965-0.548 1.487-0.706 1.384-0.416 2.823-0.502 4.255-0.623 0.335-0.028 0.67 0.285 1.086-0.050h-0.001zM23.189 13.026c0.016-0.274-0.001-0.556 0.055-0.82 0.123-0.572-0.075-1.194 0.366-1.723 0.237-0.284 0.009-0.582-0.234-0.816-0.22-0.212-0.424-0.318-0.72-0.111-0.188 0.132-0.412 0.246-0.635 0.29-1.607 0.31-3.047 1.085-4.573 1.617-0.975 0.341-1.872 0.904-2.928 1.027-0.11 0.013-0.239 0.058-0.315 0.133-0.345 0.339-0.759 0.491-1.233 0.472-0.548-0.022-0.883 0.43-1.374 0.582-0.869 0.269-1.77 0.419-2.626 0.775-0.813 0.339-1.554 0.846-2.434 1.052-0.447 0.105-0.891 0.317-1.199 0.707-0.278 0.355-0.239 0.874 0.115 0.985 1.195 0.372 2.32 0.903 3.457 1.411 0.234 0.105 0.527 0.066 0.792-0.090 0.664-0.391 1.335-0.775 2.024-1.12 0.704-0.353 1.078-1.202 1.964-1.27 1.232-0.868 2.484-1.704 3.749-2.523 0.672-0.435 1.563-0.508 2.060-1.242 0.061-0.090 0.291-0.076 0.444-0.090 0.158-0.015 0.324 0.006 0.37 0.195 0.038 0.152 0.053 0.352-0.097 0.429-0.509 0.26-0.834 0.713-1.228 1.092-0.617 0.591-1.168 1.242-1.858 1.763-1.23 0.927-2.477 1.847-3.465 3.047-0.542 0.657-0.981 1.338-1.212 2.218-0.19 0.725 0.015 1.49-0.356 2.173-0.077 0.143-0.092 0.406 0.097 0.541 0.22 0.157 0.426 0.085 0.635-0.078 0.643-0.503 1.311-0.974 1.944-1.488 0.262-0.213 0.486-0.274 0.711-0.015 0.745 0.859 1.749 1.366 2.694 1.94 0.562 0.341 1.093 0.831 1.872 0.704 0.541-0.088 0.684-0.152 0.817-0.657 0.379-1.437 0.498-2.928 0.916-4.357 0.11-0.377-0.090-0.807 0.139-1.153 0.368-0.559 0.409-1.166 0.375-1.8-0.007-0.152-0.029-0.363 0.056-0.452 0.564-0.59 0.378-1.319 0.413-2.005 0.022-0.424-0.081-0.877 0.424-1.342l-0.004-0.002z"></path>
</symbol>
<symbol id="icon-instagram" viewBox="0 0 32 32">
<path d="M0.859 3.891c0.409-1.447 1.459-2.256 2.632-2.876 0.612-0.324 1.359-0.455 2.062-0.541 0.753-0.093 1.489-0.221 2.218-0.425 0.205-0.057 0.435-0.034 0.653-0.034 4.097 0 8.195-0.051 12.29 0.040 1.021 0.022 2.096 0.024 3.105 0.355 0.034 0.011 0.073 0.016 0.109 0.012 1.25-0.133 2.422 0.339 3.64 0.456 0.182 0.018 0.348 0.044 0.522 0.121 0.799 0.353 1.488 0.88 2.215 1.343 0.212 0.135 0.329 0.364 0.454 0.591 0.207 0.375 0.312 0.81 0.636 1.122 0.144 0.139 0.154 0.319 0.154 0.5 0 0.144-0.059 0.322 0.006 0.428 0.444 0.732 0.449 1.492 0.334 2.318-0.11 0.794 0.005 1.608-0.040 2.418-0.040 0.722 0.078 1.481 0.043 2.214-0.036 0.753 0.326 1.529-0.105 2.262 0.111 1.368-0.294 2.708-0.227 4.073 0.017 0.337 0.077 0.672 0.124 1.006 0.024 0.176 0.109 0.356 0.083 0.522-0.117 0.731-0.383 1.456-0.005 2.187-0.343 0.556-0.126 1.16-0.149 1.742-0.005 0.106-0.057 0.226-0.023 0.316 0.411 1.097-0.149 2.063-0.336 3.098-0.209 1.149-1.061 1.815-1.617 2.686-0.439 0.687-1.324 0.955-2.083 1.265-1.026 0.42-2.131 0.458-3.224 0.605-1.191 0.16-2.402-0.112-3.56 0.267-0.378 0.124-0.675-0.166-1.051-0.143-0.875 0.053-1.754 0.032-2.631 0.011-0.54-0.013-1.096 0.096-1.614-0.149-0.156-0.074-0.27 0.035-0.405 0.054-0.682 0.094-1.366 0.174-2.044-0.060-0.164-0.056-0.371-0.083-0.534-0.037-1.336 0.369-2.718 0.326-4.074 0.357-1.051 0.025-2.162-0.057-3.154-0.435-0.793-0.302-1.593-0.597-2.393-0.875-1.052-0.366-1.612-1.134-2.002-2.081-0.314-0.761-0.452-1.543-0.5-2.38-0.057-0.996-0.137-1.999-0.242-2.993-0.061-0.583 0.272-1.196-0.127-1.746 0.148-0.537-0.179-1.122 0.167-1.64-0.048-1.062 0.045-2.124 0.034-3.186-0.005-0.39-0.105-0.793 0.127-1.165 0.051-0.083 0.068-0.217 0.041-0.311-0.347-1.238-0.112-2.503-0.195-3.754-0.034-0.513-0.081-1.027-0.144-1.536-0.066-0.534 0.072-1.084 0.020-1.579-0.057-0.544-0.003-0.98 0.255-1.422 0.14-0.238 0.111-0.491 0.092-0.738-0.060-0.77 0.13-1.484 0.461-2.26l-0.001-0.001zM6.314 26.102c0.207 0.142 0.462 0.247 0.612 0.434 0.565 0.705 1.345 0.884 2.185 0.985 0.303 0.037 0.545 0.225 0.918 0.065 0.266-0.115 0.663 0.283 1.009-0.017 1.442 0.105 2.856-0.226 4.29-0.262 1.23-0.030 2.471 0.165 3.692-0.188 0.291-0.084 0.644-0.071 0.965 0.082 0.302 0.143 0.631 0.088 0.958 0.040 0.908-0.132 1.816-0.291 2.729-0.346 1.178-0.071 2.164-0.766 2.702-1.855 0.3-0.609 0.42-1.2 0.399-1.859-0.024-0.713 0.123-1.428 0.146-2.127 0.050-1.47 0.399-2.915 0.297-4.396-0.067-0.969-0.065-1.951 0-2.922 0.124-1.828-0.27-3.604-0.46-5.4-0.011-0.103-0.058-0.204-0.101-0.3-0.359-0.807-1.136-1.319-1.541-2.099-0.047-0.090-0.264-0.083-0.392-0.141-0.706-0.319-1.442-0.475-2.219-0.44-1.18-0.587-2.481-0.066-3.694-0.386-0.198-0.053-0.42 0.036-0.635 0.098-0.586 0.172-1.176 0.133-1.717-0.177-0.133-0.076-0.232-0.128-0.393-0.078-0.913 0.275-1.86 0.194-2.793 0.27-0.587 0.048-1.171-0.027-1.766 0.043-0.678 0.079-1.349 0.283-2.043 0.252-1.525-0.067-2.727 0.613-3.775 1.624-0.228 0.221-0.37 0.514-0.541 0.774-0.316 0.479-0.282 1.029-0.506 1.488-0.302 0.618-0.328 1.236-0.327 1.884 0.005 2.454 0 4.909 0.007 7.363 0.001 0.534 0.067 1.056 0.167 1.59 0.142 0.761 0.353 1.529 0.276 2.333-0.137 1.417 0.614 2.511 1.549 3.67h0.001z"></path>
<path d="M6.524 14.965c-0.114-0.235-0.264-0.467-0.161-0.574 0.378-0.397-0.16-0.819 0.091-1.213 0.228-0.359 0.015-0.781 0.1-1.165 0.14-0.629 0.164-1.276 0.274-1.903 0.184-1.042 0.917-1.787 1.735-2.417 0.543-0.419 1.282-0.482 1.833-0.912 0.143-0.112 0.393-0.092 0.51 0.047 0.341 0.403 0.783 0.303 1.216 0.309 1.357 0.018 2.703-0.036 4.025-0.378 0.241-0.063 0.51-0.021 0.766-0.021 1.025-0.002 2.050 0.013 3.073-0.010 0.661-0.015 1.301 0.041 1.911 0.312 0.13 0.057 0.275 0.122 0.41 0.119 1.27-0.040 1.836 0.935 2.547 1.702-0.023 0.728 0.51 1.34 0.368 2.127-0.1 0.553 0.145 1.159 0.146 1.741 0.001 0.927 0.188 1.867-0.134 2.78-0.011 0.034-0.035 0.075-0.025 0.103 0.387 1.068-0.108 2.082-0.177 3.122-0.083 1.238-0.083 2.484-0.062 3.726 0.017 0.993-0.477 1.669-1.212 2.248-0.977 0.769-2.089 1.117-3.33 1.059-1.159-0.054-2.332 0.154-3.477-0.177-1.477 0.285-2.939-0.199-4.421-0.068-1.274 0.112-2.498-0.252-3.705-0.622-0.878-0.27-1.371-0.784-1.677-1.724-0.393-1.212-0.564-2.407-0.59-3.658-0.023-1.069 0.13-2.146-0.194-3.206-0.124-0.406-0.003-0.854 0.161-1.342h-0.001zM14.083 11.22c-0.98 0.493-1.235 0.827-2.222 1.917-0.81 0.893-1.192 1.947-1.56 3.026-0.138 0.404-0.139 0.87 0.016 1.275 0.231 0.606 0.434 1.216 0.804 1.778 0.863 1.309 1.957 2.193 3.583 2.382 0.285 0.034 0.476-0.235 0.712-0.104 0.714 0.395 1.342 0.001 1.955-0.232 0.624-0.237 1.234-0.503 1.767-0.972 0.718-0.631 1.082-1.45 1.532-2.234 0.236-0.413 0.28-0.879 0.424-1.305 0.237-0.702-0.092-1.387 0.127-2.070 0.137-0.428-0.498-0.767-0.239-1.284 0.081-0.161-0.247-0.208-0.358-0.346-0.892-1.098-2.105-1.683-3.452-2.015-0.345-0.085-0.764 0.069-1.085-0.049-0.671-0.249-1.266-0.094-2.006 0.234h0.001zM20.942 9.126c-0.152 0.199-0.299 0.403-0.459 0.597-0.136 0.165-0.108 0.307-0.010 0.484 0.399 0.73 1.732 1.15 2.464 0.757 0.092-0.049 0.21-0.129 0.233-0.215 0.097-0.372 0.253-0.76 0.212-1.124-0.035-0.315-0.412-0.469-0.723-0.599-0.525-0.221-1.042-0.302-1.717 0.101h-0.001z"></path>
<path d="M13.849 18.993c-1.462-1.362-1.52-1.368-1.337-3.208 0.101-1.019 0.486-1.921 1.444-2.599 0.864-0.611 1.745-0.492 2.556-0.301 0.859 0.202 1.726 0.639 2.243 1.458 0.442 0.697 0.395 1.535 0.623 2.295-0.352 0.665-0.476 1.422-1.159 1.947-0.554 0.427-1.112 0.705-1.776 0.906-0.952 0.287-1.747 0.006-2.595-0.495l0.001-0.001z"></path>
</symbol>
<symbol id="icon-merch" viewBox="0 0 33 32">
<path d="M16.952 27.976c6.597 0 11.944-7.105 11.944-15.869h4.056c-1.335 10.109-7.991 17.792-16 17.792s-14.664-7.683-16-17.792h4.056c0 8.764 5.348 15.869 11.944 15.869z"></path>
<path d="M32.852 6.129c0 1.12-0.906 2.028-2.023 2.028s-2.023-0.908-2.023-2.028 0.906-2.028 2.023-2.028c1.118 0 2.023 0.908 2.023 2.028z"></path>
<path d="M4.999 6.129c0 1.12-0.906 2.028-2.023 2.028s-2.023-0.908-2.023-2.028c0-1.12 0.906-2.028 2.023-2.028s2.023 0.908 2.023 2.028z"></path>
</symbol>
<symbol id="icon-chevron-left" viewBox="0 0 32 32">
<path d="M19.609 7.057c0.521 0.521 0.521 1.365 0 1.886l-7.057 7.057 7.057 7.057c0.521 0.521 0.521 1.365 0 1.886s-1.365 0.521-1.886 0l-7.057-7.057c-1.041-1.041-1.041-2.73 0-3.771l7.057-7.057c0.521-0.521 1.365-0.521 1.886 0z"></path>
</symbol>
<symbol id="icon-chevron-right" viewBox="0 0 32 32">
<path d="M12.39 7.057c0.521-0.521 1.365-0.521 1.886 0l7.057 7.057c1.041 1.041 1.041 2.73 0 3.771l-7.057 7.057c-0.521 0.521-1.365 0.521-1.886 0s-0.521-1.365 0-1.886l7.057-7.057-7.057-7.057c-0.521-0.521-0.521-1.365 0-1.886z"></path>
</symbol>
<symbol id="icon-arrow-right" viewBox="0 0 34 32">
<path d="M17.19 7.057c0.521-0.521 1.365-0.521 1.886 0l7.057 7.057c1.041 1.041 1.041 2.73 0 3.771l-7.057 7.057c-0.521 0.521-1.365 0.521-1.886 0s-0.521-1.365 0-1.886l5.724-5.724h-15.448c-0.736 0-1.333-0.597-1.333-1.333s0.597-1.333 1.333-1.333h15.448l-5.724-5.724c-0.521-0.521-0.521-1.365 0-1.886z"></path>
</symbol>
<symbol id="icon-logo" viewBox="0 0 94 32">
<path d="M48.022 0.538c1.475 0 2.618 0.272 3.428 0.816 0.81 0.533 1.215 1.271 1.215 2.215 0 0.633-0.194 1.177-0.582 1.632-0.377 0.455-0.915 0.788-1.614 0.999v0.083c0.81 0.189 1.448 0.527 1.914 1.016 0.477 0.477 0.716 1.055 0.716 1.732 0 0.633-0.194 1.188-0.583 1.665-0.377 0.477-0.926 0.849-1.647 1.116-0.721 0.255-1.581 0.383-2.579 0.383h-5.258v-11.656h4.992zM47.972 5.667c0.577 0 1.015-0.155 1.315-0.466 0.3-0.322 0.449-0.783 0.449-1.382 0-0.611-0.155-1.071-0.466-1.382s-0.765-0.466-1.364-0.466h-1.83v3.697h1.897zM47.972 10.762c0.655 0 1.154-0.161 1.497-0.483 0.355-0.322 0.533-0.783 0.533-1.382s-0.177-1.060-0.533-1.382c-0.355-0.333-0.86-0.5-1.514-0.5h-1.88v3.747h1.897z"></path>
<path d="M57.661 3.868v1.382c0.255-0.5 0.593-0.883 1.015-1.149 0.433-0.266 0.926-0.4 1.481-0.4 0.843 0 1.509 0.272 1.997 0.816 0.499 0.544 0.749 1.338 0.749 2.381v0.433h-2.679v-0.35c0-1.032-0.355-1.549-1.065-1.549-0.41 0-0.743 0.216-0.998 0.649-0.255 0.422-0.383 0.966-0.383 1.632v4.479h-2.712v-8.326h2.596z"></path>
<path d="M67.377 12.36c-1.054 0-1.891-0.333-2.513-0.999-0.61-0.677-0.915-1.599-0.915-2.764v-4.729h2.745l0.017 4.513c0 0.777 0.128 1.377 0.383 1.798 0.255 0.411 0.621 0.616 1.098 0.616 0.488 0 0.888-0.233 1.198-0.699 0.311-0.477 0.466-1.077 0.466-1.798v-4.429h2.712v8.326h-2.579v-1.315c-0.266 0.488-0.621 0.86-1.065 1.116-0.444 0.244-0.96 0.366-1.547 0.366z"></path>
<path d="M78.428 12.411c-1.165 0-2.141-0.255-2.929-0.766-0.788-0.522-1.237-1.271-1.348-2.248h1.548c0.089 0.566 0.372 1.010 0.849 1.332 0.488 0.311 1.071 0.466 1.747 0.466 0.444 0 0.837-0.072 1.181-0.216 0.344-0.155 0.516-0.383 0.516-0.683 0-0.255-0.134-0.45-0.4-0.583-0.255-0.133-0.721-0.294-1.397-0.483l-0.533-0.15c-0.965-0.244-1.741-0.572-2.329-0.982s-0.887-1.027-0.898-1.848c0-0.877 0.372-1.526 1.115-1.948 0.754-0.433 1.641-0.649 2.663-0.649 1.076 0 1.98 0.25 2.712 0.749 0.743 0.488 1.164 1.21 1.264 2.165h-1.53c-0.111-0.544-0.383-0.96-0.815-1.249-0.433-0.3-0.965-0.45-1.598-0.45-0.41 0-0.771 0.078-1.081 0.233-0.3 0.144-0.449 0.377-0.449 0.699 0 0.255 0.15 0.455 0.449 0.599s0.815 0.316 1.548 0.516c0.055 0.011 0.116 0.028 0.183 0.050 0.078 0.022 0.156 0.044 0.233 0.067 0.987 0.255 1.775 0.577 2.363 0.966 0.599 0.377 0.898 0.949 0.898 1.715 0 0.6-0.188 1.105-0.566 1.515-0.366 0.4-0.854 0.699-1.464 0.899-0.599 0.189-1.242 0.283-1.93 0.283z"></path>
<path d="M86.782 0.371v4.712c0.532-0.921 1.364-1.382 2.496-1.382 1.054 0 1.886 0.333 2.496 0.999s0.915 1.582 0.915 2.747v4.746h-2.745v-4.529c0-0.777-0.133-1.371-0.399-1.782-0.255-0.411-0.621-0.616-1.098-0.616-0.488 0-0.887 0.239-1.198 0.716-0.311 0.466-0.466 1.055-0.466 1.765v4.446h-2.712v-11.822h2.712z"></path>
<path d="M48.022 16.476c1.475 0 2.618 0.272 3.428 0.816 0.81 0.533 1.215 1.271 1.215 2.215 0 0.633-0.194 1.177-0.582 1.632-0.377 0.455-0.915 0.788-1.614 0.999v0.083c0.81 0.189 1.448 0.527 1.913 1.016 0.477 0.477 0.716 1.055 0.716 1.732 0 0.633-0.194 1.188-0.582 1.665-0.377 0.477-0.926 0.849-1.647 1.116-0.721 0.255-1.581 0.383-2.579 0.383h-5.258v-11.656h4.992zM47.972 21.605c0.577 0 1.015-0.155 1.315-0.466 0.3-0.322 0.449-0.783 0.449-1.382 0-0.611-0.155-1.071-0.466-1.382s-0.765-0.466-1.364-0.466h-1.83v3.697h1.897zM47.972 26.7c0.655 0 1.154-0.161 1.498-0.483 0.355-0.322 0.532-0.783 0.532-1.382s-0.177-1.060-0.532-1.382c-0.355-0.333-0.86-0.5-1.514-0.5h-1.88v3.747h1.897z"></path>
<path d="M57.696 28.298c-1.054 0-1.891-0.333-2.513-0.999-0.61-0.677-0.915-1.598-0.915-2.764v-4.729h2.745l0.017 4.513c0 0.777 0.128 1.377 0.383 1.798 0.255 0.411 0.621 0.616 1.098 0.616 0.488 0 0.888-0.233 1.198-0.699 0.311-0.477 0.466-1.077 0.466-1.798v-4.429h2.712v8.326h-2.579v-1.316c-0.266 0.488-0.621 0.86-1.065 1.116-0.444 0.244-0.959 0.366-1.547 0.366z"></path>
<path d="M68.131 28.299c-0.743 0-1.414-0.183-2.013-0.549s-1.071-0.877-1.414-1.532c-0.333-0.655-0.499-1.404-0.499-2.248s0.166-1.593 0.499-2.248c0.344-0.655 0.815-1.166 1.414-1.532s1.27-0.55 2.013-0.55c0.543 0 1.021 0.117 1.431 0.35 0.422 0.233 0.76 0.577 1.015 1.032v-4.712h2.712v11.823h-2.596v-1.299c-0.266 0.477-0.615 0.844-1.048 1.099-0.433 0.244-0.937 0.366-1.514 0.366zM68.73 26.767c0.366 0 0.699-0.122 0.998-0.366 0.299-0.255 0.532-0.594 0.699-1.016s0.25-0.894 0.25-1.415c0-0.522-0.083-0.994-0.25-1.415s-0.399-0.755-0.699-0.999c-0.3-0.255-0.632-0.383-0.998-0.383-0.521 0-0.943 0.239-1.265 0.716s-0.483 1.171-0.483 2.081c0 0.91 0.161 1.604 0.483 2.082s0.743 0.716 1.265 0.716z"></path>
<path d="M78.532 28.299c-0.743 0-1.414-0.183-2.013-0.549s-1.071-0.877-1.414-1.532c-0.333-0.655-0.5-1.404-0.5-2.248s0.167-1.593 0.5-2.248c0.343-0.655 0.815-1.166 1.414-1.532s1.271-0.55 2.013-0.55c0.544 0 1.021 0.117 1.431 0.35 0.422 0.233 0.76 0.577 1.015 1.032v-4.712h2.712v11.823h-2.596v-1.299c-0.266 0.477-0.616 0.844-1.048 1.099-0.433 0.244-0.937 0.366-1.515 0.366zM79.132 26.767c0.367 0 0.699-0.122 0.999-0.366 0.3-0.255 0.532-0.594 0.699-1.016s0.249-0.894 0.249-1.415c0-0.522-0.083-0.994-0.249-1.415s-0.399-0.755-0.699-0.999c-0.3-0.255-0.632-0.383-0.999-0.383-0.521 0-0.943 0.239-1.265 0.716s-0.482 1.171-0.482 2.081c0 0.91 0.161 1.604 0.482 2.082s0.743 0.716 1.265 0.716z"></path>
<path d="M87.853 31.629c-0.566 0-1.081-0.122-1.547-0.366s-0.838-0.605-1.115-1.082c-0.277-0.466-0.416-1.021-0.416-1.665v-0.433h1.431v0.533c0 0.5 0.145 0.905 0.433 1.216 0.3 0.322 0.66 0.483 1.081 0.483 0.355 0 0.644-0.105 0.865-0.316 0.233-0.211 0.349-0.477 0.349-0.799v-0.067c0-0.211-0.049-0.461-0.149-0.749s-0.295-0.727-0.583-1.316l-3.711-7.26h2.995l2.047 4.213c0.1 0.233 0.211 0.511 0.333 0.833 0.122 0.311 0.194 0.538 0.216 0.683 0.033-0.155 0.084-0.316 0.15-0.483l1.996-5.245h1.581l-2.596 6.527c-0.1 0.255-0.172 0.5-0.217 0.733-0.044 0.222-0.066 0.494-0.066 0.816v0.533c0 0.666-0.133 1.238-0.399 1.715-0.266 0.488-0.638 0.86-1.115 1.116-0.466 0.255-0.987 0.383-1.564 0.383z"></path>
<path d="M4.336 2.725c0 1.197-0.971 2.167-2.168 2.167s-2.168-0.97-2.168-2.167c0-1.197 0.971-2.167 2.168-2.167s2.168 0.97 2.168 2.167z"></path>
<path d="M34.177 2.725c0 1.197-0.97 2.167-2.168 2.167s-2.168-0.97-2.168-2.167 0.971-2.167 2.168-2.167c1.197 0 2.168 0.97 2.168 2.167z"></path>
<path d="M17.142 26.062c7.067 0 12.797-7.589 12.797-16.951h4.345c-1.431 10.799-8.561 19.006-17.142 19.006s-15.711-8.207-17.142-19.006h4.345c0 9.362 5.729 16.951 12.797 16.951z"></path>
</symbol>
<symbol id="icon-cart" viewBox="0 0 32 32">
<path d="M5.475 12.907c-0.031-0.578-0.061-1.156-0.122-1.706-0.153-0.248-0.275-0.44-0.488-0.743 0-0.303-0.061-0.716-0.092-1.183-0.122-0.248-0.305-0.523-0.458-0.798 0-0.413-0.061-0.826-0.092-1.211-0.122-0.22-0.244-0.44-0.397-0.688-0.031-0.55-0.092-1.101-0.153-1.706-0.153-0.275-0.305-0.55-0.458-0.853-0.031-0.385-0.061-0.798-0.092-1.211-0.153-0.22-0.275-0.44-0.458-0.688v-1.266c0.092-0.358 0.488-0.55 0.885-0.798 0.244 0 0.519-0.055 0.794-0.055 0.153 0.083 0.336 0.138 0.458 0.248 0.794 0.688 1.343 1.514 1.618 2.477 0.275 0.936 0.855 1.761 1.343 2.642 0.122 0.193 0.397 0.33 0.611 0.495h1.404c0.244-0.11 0.58-0.248 1.007-0.413h13.706c0.336-0.165 0.549-0.275 0.885-0.44h1.862c0.366 0.138 0.794 0.275 1.191 0.44 0.427 0.165 0.733 0.468 0.916 0.853 0.153 0.303 0.305 0.578 0.489 0.908 0.091 0.716 0 1.404-0.458 2.064-0.031 1.871-0.061 3.743-0.092 5.614-0.153 0.248-0.275 0.44-0.427 0.688-0.183 0.771 0.153 1.651-0.488 2.339 0.092 0.138 0.183 0.275 0.244 0.413 0 0.055 0 0.138 0 0.22-0.092 0.138-0.183 0.275-0.336 0.523-0.031 1.128-0.092 2.367-0.122 3.66-0.214 0.358-0.458 0.798-0.702 1.211-0.611 0.303-1.252 0.193-1.862 0.193-0.641 0-1.282 0-1.801 0-0.336 0.165-0.58 0.275-0.794 0.385-0.397 0.055-0.702-0.11-1.007-0.275-0.244 0.11-0.488 0.22-0.733 0.33-2.289 0.028-4.548 0.055-6.807 0.083-0.244 0.11-0.489 0.22-0.794 0.385h-3.51c-0.672-0.303-1.526-0.44-2.045-1.238 0-0.22-0.061-0.55-0.061-0.853 0-0.33 0-0.66 0-0.881-0.183-0.303-0.336-0.523-0.458-0.743-0.031-0.578-0.061-1.156-0.092-1.734-0.122-0.22-0.244-0.413-0.458-0.715-0.031-0.55-0.092-1.211-0.122-1.789-0.183-0.275-0.305-0.468-0.458-0.688-0.031-0.413-0.061-0.826-0.092-1.238-0.519-0.688-0.458-1.569-0.977-2.229l0.092-0.028z"></path>
<path d="M12.841 32h-1.346c-0.778-0.379-1.316-1.029-1.855-1.57-0.299-0.677-0.12-1.326-0.12-1.949 0.299-0.487 0.748-0.866 1.346-1.245 0.808-0.162 1.675-0.108 2.513-0.027 0.808 0.352 0.898 1.164 1.376 1.733v1.353c-0.539 0.704-1.197 1.245-1.915 1.705z"></path>
<path d="M25.54 27.26c0.059 0.413 0.119 0.798 0.355 1.155 0.267 0.413 0.207 0.44 0.119 1.238-0.326 0.303-0.681 0.66-0.978 0.963-0.533 0.248-1.007 0.468-1.481 0.688h-0.859c-0.296-0.248-0.593-0.523-0.948-0.77-0.267-0.193-0.563-0.33-0.889-0.523 0-0.743-0.059-1.486-0.059-2.118 0.207-0.495 0.504-0.77 0.918-0.963 0.385-0.165 0.8-0.33 1.215-0.495h0.978c0.593 0.22 1.185 0.358 1.6 0.825h0.030z"></path>
</symbol>
<symbol id="icon-cat" viewBox="0 0 33 32">
<path fill="#fff" style="fill: var(--color1, #fff)" d="M13.417 5.271c0.222-0.065 0.444-0.17 0.652-0.196 0.196-0.013 0.339-0.17 0.522-0.183 0.169 0.131 0.339 0.183 0.522 0.039 0.052-0.052 0.143-0.065 0.248-0.117h2.843c0.104-0.052 0.17-0.091 0.222-0.131 0.13-0.065 0.209 0.052 0.365 0.117 0.13 0 0.326 0.026 0.548 0.039 0.104 0.052 0.248 0.131 0.391 0.209h0.587c0.078-0.065 0.183-0.131 0.261-0.209 0.235-0.196 0.404-0.483 0.73-0.548 0.209-0.183 0.404-0.366 0.639-0.574 0.548-0.261 1.148-0.535 1.722-0.836 0.209-0.118 0.43-0.157 0.613-0.17 0.196-0.157 0.339-0.274 0.47-0.379 0.196-0.104 0.417-0.039 0.574-0.17 0.13-0.104 0.274-0.118 0.43-0.157 0.3-0.078 0.561-0.261 0.874-0.261 0.209-0.209 0.522-0.131 0.744-0.274 0.248-0.17 0.522-0.131 0.783-0.131 0.248 0.091 0.483 0.222 0.783 0.235 0.143 0.117 0.274 0.248 0.43 0.366 0.117 0.091 0.261 0.144 0.391 0.222 0 0.209 0.026 0.405 0.039 0.601 0.052 0.104 0.104 0.196 0.196 0.353 0.052 1.188 0 2.428 0 3.643-0.078 0.131-0.13 0.222-0.222 0.366 0 0.274 0 0.574 0 0.888 0 0.196-0 0.392-0.039 0.588-0.026 0.144-0.157 0.274-0.183 0.418-0.026 0.235-0.157 0.431-0.222 0.653s-0.065 0.457-0.222 0.64c0 0.483-0.339 0.836-0.483 1.306 0.104 0.222 0.196 0.483 0.365 0.679 0.274 0.339 0.391 0.744 0.626 1.097 0.143 0.209 0.117 0.444 0.209 0.653s0.209 0.405 0.313 0.614c0.104 0.209 0.209 0.418 0.313 0.614-0.026 0.326 0.196 0.574 0.3 0.862 0.091 0.248 0.235 0.483 0.378 0.77 0.013 0.222 0.026 0.496 0.052 0.744 0.065 0.157 0.13 0.287 0.196 0.431 0.013 0.196 0.026 0.392 0.039 0.575 0.065 0.104 0.117 0.209 0.183 0.339v2.428c-0.052 0.104-0.104 0.209-0.17 0.326-0.078 0.235-0.039 0.509-0.065 0.809-0.065 0.144-0.143 0.326-0.222 0.496-0.091 0.209-0.222 0.392-0.235 0.64-0.013 0.183-0.143 0.352-0.222 0.522s-0.17 0.339-0.313 0.614c-0.17 0.261-0.548 0.496-0.704 0.914-0.039 0.091-0.143 0.183-0.248 0.235-0.183 0.091-0.352 0.157-0.404 0.379 0 0.026-0.039 0.078-0.078 0.078-0.47 0.131-0.678 0.627-1.122 0.809-0.209 0.078-0.365 0.3-0.561 0.392-0.183 0.091-0.326 0.209-0.483 0.326-0.183 0.131-0.404 0.222-0.587 0.366s-0.365 0.287-0.613 0.287c-0.065 0-0.143 0.052-0.209 0.091-0.548 0.274-1.096 0.548-1.643 0.823-0.17 0.091-0.352 0.157-0.522 0.235-0.339-0.065-0.548 0.287-0.874 0.261-0.13 0-0.287 0.104-0.496 0.196h-0.926c-0.183 0.091-0.313 0.157-0.456 0.222-0.261 0.013-0.535 0.039-0.783 0.052-0.117 0.065-0.222 0.117-0.326 0.183-0.196 0.013-0.391 0.026-0.587 0.039-0.104 0.052-0.209 0.105-0.365 0.183-1.109 0.052-2.27 0.039-3.391 0-0.143-0.078-0.248-0.131-0.352-0.183-0.43 0-0.861-0.026-1.278-0.026-0.117-0.065-0.209-0.117-0.352-0.196-0.235-0.013-0.509-0.039-0.77-0.052-0.248-0.105-0.483-0.248-0.756-0.235-0.222-0.183-0.509-0.183-0.757-0.274s-0.483-0.235-0.77-0.379c-0.183-0.026-0.404-0.052-0.639-0.078-0.157-0.117-0.313-0.248-0.443-0.352-0.822-0.209-1.513-0.601-2.113-1.188-0.143-0.026-0.3-0.052-0.443-0.091-0.287-0.209-0.548-0.431-0.665-0.783-0.039-0.104-0.143-0.183-0.235-0.261-0.143-0.117-0.365-0.131-0.483-0.313-0.078-0.131-0.13-0.3-0.248-0.379-0.196-0.131-0.352-0.261-0.457-0.483-0.091-0.209-0.339-0.313-0.391-0.561-0.065-0.235-0.287-0.366-0.404-0.561s-0.183-0.418-0.3-0.614c-0.078-0.131-0.17-0.261-0.274-0.366-0.104-0.117-0.17-0.248-0.183-0.418-0.013-0.313-0.339-0.535-0.261-0.875-0.17-0.261-0.235-0.561-0.43-0.823-0.013-0.339-0.026-0.692-0.039-1.031-0.052-0.104-0.117-0.209-0.196-0.352-0.026-0.653-0.039-1.345 0.013-2.011 0.065-0.131 0.13-0.235 0.183-0.352 0-0.248 0.026-0.522 0.039-0.796 0.209-0.326 0.196-0.744 0.417-1.058 0.013-0.196 0.026-0.392 0.039-0.575 0.065-0.104 0.117-0.209 0.183-0.326 0.065-0.287 0.026-0.601 0.209-0.888 0.13-0.222 0.078-0.535 0.287-0.744 0.026-0.026 0.013-0.078 0.026-0.104 0.143-0.274 0.326-0.535 0.417-0.822s0.352-0.431 0.443-0.679c0.104-0.313 0.391-0.483 0.548-0.809 0-0.379-0.026-0.796-0.039-1.227-0.065-0.104-0.117-0.209-0.209-0.366 0-0.379-0.026-0.796-0.039-1.227-0.13-0.313-0.148-0.596-0.052-0.849-0.039-0.065-0.078-0.131-0.144-0.248-0.026-1.306-0.065-2.663-0.013-3.995 0.183-0.561 0.548-0.966 0.809-1.423 0.052-0.091 0.17-0.144 0.261-0.222 0.248-0.039 0.47-0.065 0.678-0.235h0.848c0.091 0.039 0.222 0.117 0.365 0.183 0.196 0 0.378 0.026 0.574 0.026 0.104 0.065 0.209 0.117 0.365 0.196 0.143 0 0.326 0.026 0.522 0.039 0.065 0.026 0.143 0.052 0.209 0.091 0.274 0.131 0.574 0.235 0.822 0.405 0.261 0.17 0.561 0.248 0.783 0.483 0.183 0.196 0.47 0.261 0.704 0.379 0.104 0.052 0.209 0.091 0.3 0.17 0.169 0.17 0.339 0.326 0.574 0.379 0.222 0.209 0.483 0.379 0.6 0.692 0.065 0.17 0.248 0.3 0.352 0.457 0.091 0.131 0.13 0.287 0.209 0.405 0.065 0.091 0.169 0.157 0.261 0.222l0.117 0.078zM23.617 28.836c0.3-0.261 0.665-0.47 1.043-0.653 0.339-0.17 0.691-0.339 1.030-0.509 0.274-0.131 0.444-0.444 0.77-0.496 0.404-0.366 0.913-0.574 1.278-0.992 0.104-0.117 0.209-0.248 0.352-0.3 0.509-0.235 0.835-0.679 1.2-1.058 0.209-0.392 0.352-0.796 0.652-1.11 0.117-0.326 0.365-0.587 0.378-0.953 0-0.144 0.13-0.274 0.196-0.418 0.013-0.274 0.026-0.548 0.039-0.796 0.065-0.118 0.117-0.222 0.196-0.34v-1.71c-0.052-0.117-0.104-0.222-0.183-0.352-0.013-0.274-0.039-0.575-0.052-0.849-0.078-0.144-0.13-0.248-0.196-0.352-0.013-0.274-0.026-0.535-0.039-0.783-0.078-0.17-0.17-0.3-0.196-0.444-0.039-0.196-0.078-0.379-0.183-0.548-0.117-0.196-0.209-0.418-0.3-0.614-0.117-0.235-0.222-0.496-0.365-0.718-0.131-0.209-0.078-0.444-0.196-0.653-0.209-0.366-0.417-0.731-0.574-1.123-0.17-0.444-0.43-0.809-0.704-1.175-0.013-0.131 0-0.274-0.052-0.353-0.157-0.222-0.196-0.509-0.391-0.705-0.248-0.248-0.378-0.574-0.496-0.927 0.091-0.183 0.196-0.392 0.287-0.574 0.157-0.104 0.313-0.065 0.496-0.052 0.091 0.091 0.209 0.196 0.3 0.287 0.026 0.261 0.039 0.483 0.065 0.718 0.183 0.144 0.157 0.418 0.365 0.522 0.091-0.17 0.196-0.326 0.274-0.496 0.052-0.104 0.026-0.222-0.052-0.326-0.039-0.052-0.039-0.131-0.052-0.196 0.052-0.117 0.104-0.222 0.157-0.326v-0.692c0.078-0.157 0.143-0.287 0.209-0.431 0.013-0.196 0.026-0.379 0.039-0.588 0.052-0.091 0.117-0.196 0.196-0.339v-2.454c-0.196-0.104-0.183-0.366-0.313-0.548-0.065-0.026-0.143-0.065-0.209-0.065-0.157 0-0.313 0-0.456 0-0.365 0.248-0.6 0.64-1.030 0.77-0.509 0.431-0.965 0.901-1.396 1.397-0.026 0.026-0.052 0.065-0.052 0.104-0.039 0.248-0.261 0.379-0.378 0.574-0.143 0.222-0.235 0.483-0.365 0.718-0.143 0.248-0.339 0.405-0.639 0.431-0.143 0-0.274 0.117-0.456 0.196h-0.991c-0.248-0.131-0.496-0.235-0.783-0.248-0.143-0.117-0.274-0.287-0.457-0.353-0.352-0.131-0.561-0.392-0.822-0.627-0.235-0.222-0.274-0.548-0.417-0.731-0.104-0.274 0.013-0.522-0.157-0.731-0.117-0.117-0.287-0.078-0.43-0.117-0.143-0.052-0.274-0.131-0.417-0.196-1.357-0.039-2.713 0-4.018 0.013-0.143 0.078-0.248 0.131-0.365 0.196-0.339 0.013-0.691 0.026-1.043 0.039-0.313 0.17-0.561 0.392-0.665 0.757-0.065 0.209-0.222 0.392-0.339 0.574-0.13 0.026-0.287 0-0.365 0.065-0.3 0.235-0.652 0.196-0.991 0.248-0.117 0.065-0.222 0.117-0.339 0.17h-1.083c-0.143-0.274-0.457-0.17-0.704-0.261-0.235-0.131-0.378-0.379-0.665-0.457-0.13-0.039-0.274-0.183-0.326-0.313-0.117-0.3-0.365-0.496-0.561-0.731-0.117-0.144-0.209-0.313-0.313-0.483-0.43-0.222-0.874-0.444-1.317-0.679-0.183-0.104-0.365-0.104-0.613-0.013-0.157 0.157-0.339 0.353-0.522 0.548v1.514c0.065 0.117 0.117 0.222 0.17 0.326-0.039 0.065-0.078 0.131-0.117 0.209 0.039 0.104 0.065 0.196 0.104 0.3-0.039 0.065-0.078 0.131-0.104 0.196 0.052 0.104 0.104 0.209 0.157 0.313 0 0.352 0.026 0.705 0.026 1.044 0.157 0.196 0.209 0.431 0.235 0.653 0 0.065 0.078 0.144 0.13 0.17 0.065 0.026 0.143-0 0.235-0.013 0.222-0.196 0.443-0.405 0.665-0.601 0.287 0 0.457 0.091 0.522 0.379-0.248 0.235-0.483 0.496-0.77 0.692-0.157 0.117-0.326 0.183-0.378 0.392-0.287 0.313-0.574 0.64-0.848 0.94-0.157 0.366-0.313 0.718-0.574 1.018-0.143 0.17-0.235 0.392-0.326 0.601-0.052 0.104-0.052 0.222-0.091 0.326-0.065 0.183-0.17 0.352-0.209 0.535-0.039 0.196-0.078 0.366-0.183 0.548-0.13 0.235-0.065 0.535-0.274 0.757-0.013 0.157-0.039 0.313-0.052 0.457-0.026 0.313-0.287 0.548-0.261 0.875 0 0.065-0.065 0.131-0.104 0.196-0.013 0.039-0.039 0.065-0.065 0.104-0.039 0.313 0.013 0.627-0.065 0.914-0.065 0.117-0.117 0.209-0.183 0.326v1.945c0.078 0.131 0.13 0.222 0.196 0.326 0.039 0.34-0.013 0.705 0.235 0.966 0.026 0.287 0.039 0.561 0.065 0.836 0.143 0.196 0.287 0.379 0.417 0.548 0.013 0.131 0.026 0.248 0.039 0.366 0.117 0.248 0.365 0.405 0.47 0.666 0.078 0.209 0.313 0.352 0.391 0.561 0.104 0.248 0.287 0.457 0.365 0.718 0.104 0.104 0.3 0.104 0.352 0.274 0.052 0.157 0.13 0.274 0.248 0.392 0.326 0.326 0.652 0.666 0.991 0.992 0.365 0.352 0.848 0.548 1.187 0.927 0.261 0.078 0.457 0.3 0.73 0.326 0.157 0.026 0.3 0.065 0.43 0.157 0.157 0.117 0.365 0.131 0.496 0.274 0.17 0.17 0.365 0.248 0.613 0.287 0.261 0.039 0.47 0.274 0.756 0.235 0.235 0.157 0.483 0.222 0.757 0.261 0.209 0.196 0.522 0.144 0.744 0.287 0.248 0.144 0.522 0.131 0.783 0.17 0.143 0.026 0.274 0.117 0.43 0.196 0.326 0.013 0.678 0.026 1.030 0.039 0.091 0.052 0.196 0.105 0.339 0.183h2.4c0.143-0.065 0.274-0.131 0.404-0.196 0.365-0.013 0.717-0.039 1.030-0.052 0.131-0.065 0.235-0.131 0.339-0.196 0.417-0.013 0.848-0.026 1.278-0.052 0.313-0.222 0.744-0.183 1.070-0.418 0.274-0.013 0.535-0.026 0.796-0.039 0.157-0.078 0.287-0.157 0.43-0.222 0.17-0.078 0.352-0.157 0.496-0.209 0.196-0.013 0.352-0.039 0.535-0.052l0.026-0.039z"></path>
<path fill="#fff" style="fill: var(--color1, #fff)" d="M7.548 15.99c-0.13-0.366-0.209-0.614-0.326-0.94-0.013-0.339-0.026-0.77-0.052-1.188-0.052-0.104-0.117-0.209-0.196-0.352v-1.919c0.065-0.235 0.274-0.379 0.261-0.574 0.209-0.131 0.365-0.131 0.509-0.078s0.274 0.13 0.404 0.209c0.235 0.13 0.47 0.248 0.757 0.248 0.235 0.17 0.496 0.196 0.77 0.222 0.143 0 0.287 0.091 0.613 0.196 0.352 0.013 0.9 0.039 1.422 0.065 0.117 0.065 0.222 0.117 0.326 0.183 0.574 0.013 1.161 0.026 1.748 0.039 0.091 0.052 0.196 0.104 0.352 0.183 0.326 0.013 0.704 0.039 1.070 0.052 0.13 0.065 0.235 0.117 0.326 0.17 0.639 0.013 1.252 0.039 1.878 0.052 0.169 0 0.274 0.117 0.417 0.144 0.065-0.039 0.13-0.078 0.209-0.104 0.104 0.052 0.209 0.104 0.287 0.144 0.196 0.026 0.3-0.104 0.444-0.157 0.17-0.026 0.3 0.052 0.43 0.144 0.065-0.039 0.13-0.078 0.248-0.144 0.248-0.013 0.561-0.039 0.861-0.052 0.104-0.052 0.209-0.117 0.339-0.183 0.404-0.026 0.835-0.039 1.265-0.065 0.131-0.065 0.261-0.144 0.417-0.183 0.183-0.039 0.391-0.039 0.574-0.052 0.274-0.261 0.678-0.144 0.965-0.366 0.052-0.039 0.143-0.065 0.222-0.052 0.404 0.065 0.717-0.3 1.109-0.274 0.378-0.235 0.809-0.235 1.226-0.196 0.352 0.17 0.378 0.561 0.6 0.862v1.501c-0.052 0.091-0.117 0.183-0.183 0.313-0.091 0.235-0.026 0.509-0.091 0.849 0 0-0.026 0.078-0.052 0.157-0.131 0.352-0.378 0.666-0.404 1.071-0.209 0.326-0.561 0.535-0.691 0.927-0.026 0.065-0.104 0.117-0.17 0.144-0.235 0.078-0.365 0.287-0.535 0.431-0.287 0.261-0.626 0.418-1.017 0.509-0.183 0.039-0.352 0.131-0.574 0.209h-0.535c-0.209-0.131-0.43-0.183-0.665-0.235-0.261-0.052-0.483-0.196-0.756-0.248-0.222-0.039-0.391-0.235-0.665-0.183-0.235-0.209-0.456-0.431-0.704-0.601-0.222-0.144-0.47-0.261-0.652-0.457-0.209-0.222-0.43-0.444-0.652-0.666-0.143-0.131-0.287-0.261-0.417-0.379h-1.304c-0.143 0.196-0.261 0.392-0.404 0.561-0.143 0.183-0.326 0.326-0.483 0.509-0.17 0.209-0.417 0.352-0.496 0.64-0.013 0.065-0.104 0.117-0.169 0.144-0.339 0.131-0.535 0.444-0.822 0.64-0.378 0.287-0.874 0.274-1.265 0.522-0.274 0.013-0.548 0.026-0.809 0.039-0.104 0.065-0.209 0.117-0.3 0.17-0.17 0.026-0.313-0.052-0.431-0.131-0.104 0.039-0.209 0.091-0.313 0.131-0.3-0.052-0.561-0.222-0.874-0.235-0.209-0.209-0.509-0.144-0.757-0.261-0.274-0.144-0.548-0.287-0.887-0.457-0.248-0.196-0.522-0.47-0.77-0.77-0.104-0.405-0.47-0.601-0.613-0.823l-0.013-0.052z"></path>
<path fill="#fff" style="fill: var(--color1, #fff)" d="M22.052 23.784c0.13 0.274 0.078 0.509 0.065 0.744-0.078 0.078-0.157 0.17-0.209 0.222-0.196 0.131-0.391 0.104-0.587 0.144-0.183 0.026-0.352 0.091-0.522 0.144-0.078-0.039-0.143-0.078-0.248-0.144h-1.657c-0.678-0.3-1.33-0.548-1.735-1.175-0.339 0.313-0.626 0.587-0.887 0.823-0.17 0.078-0.313 0.144-0.444 0.222-0.143 0.078-0.287 0.091-0.444 0.131-0.143 0.039-0.287 0.117-0.483 0.209-0.287 0.013-0.639 0.026-0.991 0.052-0.065 0.026-0.13 0.065-0.196 0.104-0.143 0.091-0.287 0.105-0.43 0-0.065-0.039-0.13-0.078-0.209-0.104-0.196-0.013-0.391-0.026-0.574-0.039-0.183-0.091-0.352-0.183-0.548-0.274-0.117-0.105-0.104-0.261-0.117-0.418 0-0.144-0.209-0.235-0.117-0.392 0.143-0.104 0.339-0.117 0.444-0.039 0.235 0.17 0.496 0.183 0.744 0.274 0.143 0.052 0.261 0.17 0.43 0.131 0.104-0.052 0.196-0.117 0.3-0.17 0.274 0 0.548-0.026 0.809-0.039 0.274-0.248 0.665-0.196 0.965-0.379 0.261-0.157 0.548-0.261 0.848-0.405-0.091-0.104-0.157-0.196-0.235-0.274-0.143-0.131-0.352-0.144-0.496-0.287-0.13-0.131-0.287-0.261-0.483-0.313-0.104-0.026-0.196-0.131-0.274-0.209-0.287-0.261-0.574-0.522-0.822-0.875v-1.488c0.183-0.522 0.535-0.927 0.926-1.266 0.365-0.183 0.717-0.352 1.122-0.548 0.522-0.065 1.096 0.013 1.709-0.026 0.117 0.065 0.235 0.157 0.378 0.196 0.704 0.222 1.109 0.379 1.461 0.64 0.13 0.091 0.235 0.222 0.222 0.392 0 0.209 0.104 0.366 0.222 0.548v1.058c-0.17 0.352-0.352 0.731-0.548 1.136-0.209 0.196-0.43 0.418-0.626 0.601-0.313 0.157-0.587 0.287-0.848 0.418-0.013 0.091-0.026 0.17-0.039 0.248 0.17 0.366 0.587 0.352 0.874 0.601 0.783 0 1.604 0.065 2.4 0 0.261-0.117 0.496-0.261 0.835-0.157l0.013-0.013z"></path>
</symbol>
<symbol id="icon-toothbrush" viewBox="0 0 32 32">
<path d="M20.899 8.075c0.045-0.090 0.090-0.18 0.135-0.24-0.060-0.12-0.12-0.24-0.165-0.315-0.060-0.345 0.329-0.465 0.239-0.72 0.105-0.12 0.15-0.195 0.225-0.255 0.569-0.57 1.153-1.125 1.707-1.695 0.404-0.42 0.838-0.795 1.093-1.335 0.060-0.12 0.165-0.225 0.285-0.285 0.255-0.105 0.449-0.27 0.644-0.465 0.18-0.195 0.374-0.375 0.569-0.57 0.195-0.18 0.389-0.345 0.659-0.45 0.24-0.105 0.419-0.315 0.614-0.465h0.719c0.389 0.36 0.898 0.555 1.288 0.93 0.374 0.375 0.749 0.765 1.078 1.095 0.090 0.045 0.135 0.075 0.165 0.075 0.135 0.015 0.27 0.030 0.404 0.030 0.195 0.105 0.374 0.225 0.449 0.45 0.060 0.165 0.12 0.315 0.195 0.51-0.434 0.435-0.883 0.87-1.318 1.305-1.318 1.335-2.635 2.655-3.953 3.99-0.12 0.12-0.21 0.285-0.299 0.435-0.075 0.12-0.18 0.18-0.299 0.24-0.285 0.15-0.494 0.375-0.674 0.645-0.12 0.18-0.195 0.39-0.374 0.54-0.030 0.030-0.060 0.075-0.105 0.075-0.419 0.075-0.599 0.51-1.003 0.63-0.329 0.105-0.629 0.315-0.898 0.465-0.539 0.030-1.018 0.045-1.497 0.060-0.135 0.075-0.255 0.135-0.404 0.225-0.18 0-0.404 0.030-0.629 0.045-0.404 0.195-0.794 0.375-1.288 0.6-0.464 0.465-1.003 1.005-1.527 1.545-0.27 0.285-0.614 0.525-0.734 0.93-0.404 0.42-0.809 0.84-1.198 1.26-0.24 0.255-0.569 0.435-0.629 0.84 0 0.075-0.105 0.135-0.165 0.21-0.27 0.345-0.674 0.6-0.868 1.005-0.225 0.45-0.644 0.735-0.973 1.095-0.3 0.33-0.614 0.645-0.928 0.96s-0.629 0.63-0.958 0.945c-0.12 0.12-0.27 0.24-0.374 0.39-0.195 0.255-0.494 0.36-0.734 0.555-0.030 0.090-0.060 0.165-0.105 0.255-0.030 0.030-0.045 0.075-0.075 0.105-0.21 0.225-0.419 0.465-0.644 0.675-0.24 0.21-0.299 0.555-0.524 0.765-0.135 0.12-0.255 0.255-0.374 0.39-0.284 0.33-0.659 0.6-0.824 1.035-0.060 0.15-0.225 0.27-0.344 0.405-0.434 0.495-1.003 0.885-1.273 1.515-0.554 0.51-0.988 1.155-1.692 1.5-0.255 0.24-0.524 0.48-0.719 0.66-0.479 0.195-0.734-0.195-1.093-0.24-0.344-0.27-0.644-0.6-0.898-0.945 0-0.060 0-0.105 0-0.15-0.015-0.18 0-0.36 0.12-0.51s0.105-0.33 0.12-0.51c0-0.135 0.015-0.27 0.060-0.39 0.060-0.165 0.135-0.33 0.225-0.48s0.225-0.285 0.314-0.42c0.15-0.21 0.27-0.465 0.434-0.66 0.27-0.3 0.569-0.57 0.853-0.855 0.599-0.315 1.033-0.825 1.527-1.275 0.255-0.24 0.614-0.33 0.853-0.615 0.225-0.27 0.509-0.51 0.779-0.735 0.195-0.165 0.434-0.285 0.644-0.45 0.18-0.135 0.314-0.315 0.479-0.465 0.195-0.18 0.374-0.375 0.569-0.555 0.359-0.345 0.704-0.675 1.063-1.020 0.419-0.165 0.689-0.57 1.063-0.795 0.584-0.345 1.063-0.795 1.392-1.38 0.434-0.45 0.869-0.9 1.258-1.305 0.225-0.165 0.479-0.165 0.539-0.435 0.030-0.12 0.135-0.225 0.239-0.315 0.464-0.48 0.943-0.945 1.422-1.425 0.15-0.15 0.329-0.3 0.524-0.39s0.359-0.255 0.509-0.42c0.539-0.525 1.078-1.065 1.572-1.56 0.329-0.195 0.674-0.135 0.913-0.36 0.27-0.030 0.524-0.075 0.794-0.105 0.15-0.075 0.285-0.24 0.479-0.21 0.299 0.030 0.494-0.195 0.764-0.255 0.239 0 0.509-0.015 0.823-0.030 0.12-0.060 0.27-0.15 0.434-0.225 0.225 0 0.449-0.030 0.659-0.045 0.329-0.225 0.764-0.27 1.003-0.645 0-0.090 0.015-0.18 0.030-0.27-0.090-0.090-0.165-0.195-0.27-0.285-0.12-0.12-0.255-0.255-0.389-0.375-0.105-0.090-0.195-0.18-0.314-0.255-0.105-0.075-0.255-0.090-0.359-0.165-0.15-0.105-0.27-0.24-0.404-0.345-0.105-0.075-0.225-0.12-0.329-0.165-0.105-0.21-0.195-0.405-0.285-0.6l-0.015 0.045zM25.031 8.72c1.422-1.425 2.86-2.865 4.297-4.305-0.045-0.225-0.18-0.33-0.359-0.45-0.988 1.005-2.036 1.965-2.995 3-0.090 0.105-0.21 0.18-0.255 0.3-0.15 0.435-0.554 0.69-0.794 1.050-0.045 0.060-0.075 0.165-0.075 0.24 0 0.105 0.075 0.15 0.18 0.15v0.015z"></path>
</symbol>
<symbol id="icon-bage-child" viewBox="0 0 32 32">
<path d="M16.113 6.322c0.71-0.105 1.275 0.182 1.794 0.47 0.392 0.218 0.967 0.258 1.111 0.851 1.102 0.706 0.83 1.791 0.738 2.837-0.026 0.29-0.292 0.261-0.412 0.428-0.707 0.985-1.686 1.444-2.842 1.621-0.402 0.062-0.832 0.106-1.202 0.233-0.354 0.122-0.56 0.191-0.796-0.137-0.119-0.164-0.317-0.121-0.487-0.121-0.685 0.002-1.217-0.278-1.719-0.783-0.216-0.217-0.474-0.508-0.842-0.59-0.4-0.088-0.157-0.696-0.55-0.822-0.475-1.045-1.152-2.052-0.668-3.301 0.143-0.368-0.088-0.818 0.223-1.211-0.213 0.124-0.449 0.22-0.636 0.379-0.938 0.793-1.823 1.651-2.44 2.742-0.467 0.826-0.77 1.743-1.223 2.584-0.108 0.2-0.085 0.498-0.066 0.747 0.025 0.34-0.163 0.534-0.362 0.745-0.131 0.138-0.227 0.202-0.437 0.096-0.896-0.454-1.63 0.014-2.356 0.499-1.151 0.771-1.374 2.068-1.666 3.289-0.179 0.751 0.46 1.256 0.929 1.634 0.372 0.299 0.98 0.242 1.469-0.069 0.598-0.381 0.729-0.341 0.987 0.303 0.211 0.525 0.513 1.058 0.546 1.602 0.037 0.61 0.616 0.989 0.496 1.612 0.698 0.555 0.801 1.53 1.419 2.157 0.32 0.325 0.53 0.803 0.938 1.010 0.429 0.217 0.671 0.626 1.042 0.887 0.396 0.278 0.779 0.659 1.22 0.77 0.595 0.149 1.045 0.715 1.713 0.603 0.068-0.011 0.166-0.020 0.206 0.018 0.644 0.646 1.45 0.364 2.192 0.41 0.628 0.038 1.263-0.029 1.891 0.016 0.572 0.041 1.099-0.112 1.629-0.271 0.161-0.049 0.306-0.227 0.482-0.171 0.68 0.215 1.064-0.558 1.682-0.528 0.334-0.547 1.010-0.587 1.416-1.108 0.468-0.6 1.067-1.081 1.44-1.789 0.256-0.485 0.659-0.883 0.969-1.339 0.241-0.355 0.53-0.546 0.944-0.473 0.655 0.659 0.146 1.264-0.225 1.666-0.275 0.298-0.305 0.683-0.574 0.971-0.239 0.255-0.543 0.515-0.676 0.899-0.145 0.42-0.454 0.757-0.797 0.989-0.816 0.549-1.486 1.281-2.471 1.634-1.515 0.542-2.076 0.777-3.449 0.82-0.479 0.015-0.981-0.117-1.434 0.166-0.028 0.018-0.071 0.042-0.096 0.032-0.801-0.316-1.671-0.051-2.464-0.276-1.141-0.322-2.305-0.674-3.316-1.306-0.703-0.441-1.435-0.946-1.922-1.672-0.276-0.411-0.686-0.649-0.979-1.052-0.513-0.706-0.84-1.515-1.325-2.229-0.573-0.843-0.945-1.788-1.245-2.845-0.466 0.090-0.909 0.254-1.449 0.093-0.851-0.254-1.246-0.842-1.636-1.56-0.358-0.659-0.567-1.358-0.759-2.075-0.069-0.254-0.102-0.506 0.005-0.738 0.359-0.77 0.733-1.532 1.112-2.291 0.181-0.363 0.543-0.599 0.912-0.887 0.733-0.572 1.566-0.854 2.434-1.070 0.41-0.102 0.706-0.348 0.721-0.801 0.013-0.389 0.209-0.677 0.364-0.994 0.814-1.658 1.956-3.053 3.284-4.272 0.471-0.433 1.1-0.679 1.688-0.964 0.648-0.314 1.369-0.533 1.918-1.050 0.171-0.16 0.342-0.236 0.563-0.22 0.386 0.027 0.747-0.088 1.111-0.207 1.299-0.427 2.593-0.228 3.883 0.064 0.065 0.015 0.124 0.103 0.182 0.098 1.554-0.11 2.806 0.782 4.112 1.415 0.615 0.297 1.074 0.945 1.599 1.437 0.922 0.862 1.613 1.936 2.402 2.916 0.413 0.514 0.572 1.25 0.859 1.915 1.286-0.169 2.239 0.538 3.127 1.332 0.335 0.3 0.537 0.764 0.784 1.165 0.108 0.175 0.418 0.134 0.398 0.433-0.036 0.562 0.68 0.902 0.419 1.532-0.012 0.030-0.002 0.072 0.003 0.108 0.209 1.358-0.423 2.303-1.367 3.13-0.709 0.62-1.477 1.016-2.415 1.044-0.524 0.016-0.994-0.278-1.532-0.243-0.17 0.011-0.359-0.311-0.535-0.477 0.223-0.456 0.57-0.622 1.029-0.58 0.174 0.016 0.352-0.019 0.524 0.003 1.234 0.162 1.954-0.582 2.645-1.503 0.656-0.873 0.522-1.742 0.091-2.568-0.215-0.411-0.41-0.862-0.775-1.225-0.812-0.81-1.75-0.979-2.789-0.827-0.423 0.062-0.672-0.115-0.957-0.414-0.182-0.19-0.216-0.332-0.18-0.55 0.11-0.65 0-1.435-0.374-1.867-0.291-0.334-0.435-0.814-0.886-1.003-0.087-0.036-0.166-0.146-0.206-0.242-0.481-1.169-1.593-1.698-2.384-2.553-0.536-0.051-0.86-0.642-1.428-0.612-0.070 0.003-0.157 0.024-0.208-0.010-0.977-0.652-2.13-0.499-3.192-0.757-1.228-0.298-2.405 0.024-3.495 0.557-1.147 0.56-1.867 1.502-1.985 2.906-0.045 0.529-0.036 1.059 0.058 1.54 0.089 0.459 0.301 0.945 0.709 1.299 0.566 0.492 1.233 0.756 1.872 1.091 0.293 0.154 0.61-0.224 0.846 0.117 1.034-0.345 2.162-0.434 3.020-1.248 0.098-0.093 0.223-0.126 0.253-0.293 0.077-0.415 0.31-0.803 0.203-1.25-0.11-0.459-0.547-0.606-0.843-0.851-0.604-0.502-1.331-0.507-1.982-0.068-0.45 0.304-0.849 0.128-1.247-0.016-0.404-0.146-0.41-0.46-0.115-0.82 0.465-0.568 1.098-0.611 1.808-0.716l0.002-0.005z"></path>
<path d="M14.923 23.026c-0.379-0.072-0.769 0.129-0.874-0.347-0.649-0.303-1.019-0.922-1.463-1.446-0.347-0.41-0.168-1.011-0.388-1.495-0.111-0.242 0.086-0.479 0.361-0.683 0.276 0.29 0.641 0.455 0.707 1.002 0.051 0.425 0.29 0.855 0.533 1.22 0.47 0.709 1.705 0.779 2.393 0.228 0.794-0.635 1.331-1.461 1.747-2.411 0.381 0.329 0.857 0.517 0.97 1.14-0.213 0.306-0.465 0.642-0.634 1.040-0.351 0.824-1.116 1.243-1.804 1.654-0.375 0.224-0.956 0.076-1.549 0.097z"></path>
<path d="M11.351 17.531c-0.133-0.121-0.188-0.211-0.237-0.305-0.2-0.373-0.502-0.725-0.367-1.195 0.127-0.445 0.619-0.486 0.912-0.775 0.507-0.501 1.584 0.159 1.572 0.905-0.007 0.377 0.165 0.903-0.29 1.063-0.479 0.168-0.871 0.921-1.589 0.305v0.002z"></path>
<path d="M19.688 16.828c-0.307 0.054-0.459 0.318-0.737 0.273-0.673-0.108-0.983-1.045-0.678-1.562 0.225-0.38 0.622-0.496 0.89-0.805 0.116-0.134 0.444-0.017 0.679 0.106 0.585 0.307 0.764 0.826 0.406 1.391-0.132 0.208-0.33 0.369-0.559 0.597l-0.001-0.001z"></path>
</symbol>
<symbol id="icon-bage-adult" viewBox="0 0 33 32">
<path d="M29.485 17.744c-0.126 0.848-0.092 1.649-0.52 2.356 0.117 0.561-0.323 0.971-0.462 1.466-0.181 0.652-0.527 1.267-0.852 1.876-0.457 0.857-1.007 1.653-1.707 2.362-0.867 0.881-1.912 1.504-3.023 2.048-0.387-0.127-0.475 0.38-0.806 0.346-0.334-0.034-0.587 0.137-0.868 0.251-0.423 0.171-0.891 0.183-1.335 0.293-0.851 0.211-1.728 0.379-2.592 0.486-0.835 0.105-1.731 0.209-2.579-0.098-0.321-0.116-0.665-0.029-1.005-0.103-1.99-0.435-3.776-1.286-5.396-2.429-1.207-0.851-2.364-1.768-3.179-3.011-0.221-0.336-0.659-0.539-0.704-0.994-0.438-0.093-0.241-0.483-0.378-0.713-0.133-0.224-0.255-0.432-0.346-0.687-0.256-0.713-0.44-1.433-0.612-2.168-0.179-0.767-0.102-1.523-0.094-2.278 0.008-0.723-0.119-1.447 0.125-2.185 0.129-0.389 0.346-0.822 0.24-1.278-0.019-0.082-0.005-0.183 0.030-0.261 0.482-1.054 0.596-2.254 1.389-3.186 0.388-1.608 1.811-2.452 2.936-3.495 1.227-1.138 2.725-1.896 4.309-2.527 0.368-0.147 0.684-0.363 1.104-0.334 0.163 0.011 0.305-0.042 0.423-0.152 0.045-0.041 0.095-0.113 0.141-0.111 0.783 0.031 1.448-0.434 2.229-0.45 1.084-0.022 2.176 0.109 3.253-0.103 0.867 0.295 1.866-0.151 2.688 0.426 0.065 0.046 0.18 0.038 0.272 0.040 0.752 0.028 1.377 0.364 2.016 0.696 1.079 0.561 1.889 1.333 2.515 2.348 0.371 0.601 0.814 1.175 1.175 1.788 0.307 0.521 0.519 1.095 0.663 1.675 0.074 0.297 0.294 0.493 0.408 0.763 0.416 0.982 0.305 2.060 0.7 3.036 0.043 0.105 0.018 0.234 0.018 0.353 0.002 1.097-0.001 2.192 0.007 3.289 0.002 0.216-0.042 0.409-0.179 0.664l-0.003 0.002zM27.993 11.724c-0.042-0.287-0.036-0.568-0.166-0.857-0.32-0.707-0.567-1.444-0.843-2.169-0.471-0.213-0.225-0.737-0.536-1.062-0.632-0.663-1.034-1.494-1.694-2.156-0.693-0.694-1.12-0.939-2.058-1.323-0.53-0.218-1.091-0.2-1.591-0.384-0.72-0.265-1.439-0.273-2.185-0.304-0.634-0.028-1.238 0.112-1.828 0.224-0.692 0.131-1.416 0.058-2.083 0.323-0.493 0.197-1.059 0.077-1.543 0.225-0.978 0.299-1.975 0.616-2.864 1.093-1.444 0.775-2.746 1.766-3.769 3.017-0.277 0.339-0.623 0.635-0.833 1.039-0.55 1.059-0.886 2.201-1.443 3.256-0.052 0.099-0.067 0.231-0.054 0.343 0.045 0.393-0.031 0.765-0.246 1.095-0.18 0.278-0.122 0.573-0.137 0.863-0.021 0.44 0.085 0.894-0.072 1.317-0.12 0.324-0.148 0.624 0 0.933 0.11 0.229 0.115 0.487 0.047 0.694-0.125 0.382 0.070 0.73 0.038 1.096-0.034 0.391 0.206 0.732 0.274 1.087 0.072 0.379 0.39 0.584 0.472 0.931 0.143 0.604 0.704 1.553 1.091 1.949 0.62 0.635 1.23 1.279 1.859 1.905 0.419 0.416 0.798 0.962 1.319 1.166 0.546 0.215 0.899 0.673 1.51 0.808 0.574 0.128 1.095 0.504 1.612 0.811 0.389 0.232 0.906 0.093 1.22 0.326 0.407 0.302 0.825 0.262 1.237 0.233 0.426-0.029 0.823 0.163 1.244 0.077 0.624-0.127 1.308 0.024 1.873-0.396 0.098-0.073 0.305-0.021 0.46-0.017 0.475 0.015 0.929-0.075 1.367-0.245 0.112-0.043 0.228-0.101 0.345-0.105 1.226-0.039 2.273-0.592 3.306-1.11 0.607-0.305 1.256-0.632 1.687-1.186 0.542-0.696 1.219-1.326 1.517-2.154 0.265-0.737 0.757-1.371 0.927-2.162 0.099-0.46 0.237-0.957 0.44-1.394 0.196-0.423 0.295-0.823 0.271-1.272-0.010-0.173 0.003-0.343 0.076-0.518 0.434-1.045 0.385-2.154 0.264-3.221-0.1-0.883-0.308-1.767-0.516-2.776l0.004-0.002z"></path>
<path d="M15.986 16.452c-0.784 0.394-1.335 0.915-1.745 1.532 0.082 0.159 0.151 0.2 0.254 0.202 0.646 0.014 1.301-0.017 1.917 0.21 0.376 0.138 0.697 0.147 0.985-0.166 0.075-0.081 0.221-0.102 0.343-0.153 0.041 0.021 0.103 0.039 0.144 0.076 0.257 0.239 0.564 0.487 0.327 0.869-0.27 0.435-0.773 0.676-1.23 0.558-0.505-0.131-1.025-0.139-1.531-0.257-0.598-0.141-1.289-0.231-1.901 0.126-0.063 0.037-0.181-0.011-0.319-0.024-0.050-0.332-0.226-0.627-0.282-0.979-0.12-0.766 0.52-1.719 1.372-2.29 0.457-0.306 0.914-0.635 1.469-0.847 0.592-0.224 0.709-0.479 0.403-1.126-0.123-0.261-0.332-0.416-0.538-0.587-0.561 0.128-1.119 0.254-1.743 0.395 0 0.339-0.031 0.69 0.008 1.035 0.053 0.479 0.074 0.473-0.382 0.746-0.127 0.076-0.233 0.185-0.368 0.293-0.447-0.31-0.427-0.75-0.419-1.181 0.017-0.832 0.725-1.728 1.577-2.049 0.387-0.146 0.723-0.486 1.186-0.202 0.521-0.217 0.863 0.142 1.182 0.395 0.637 0.506 0.879 1.749 0.529 2.421-0.052 0.101-0.147 0.227-0.248 0.255-0.42 0.115-0.612 0.485-0.987 0.748l-0.003-0.001z"></path>
<path d="M10.458 13.018c0.103-0.319 0.278-0.437 0.556-0.483 0.279-0.046 0.515 0.084 0.681 0.212 0.229 0.177 0.223 0.499-0.001 0.69-0.252 0.216-0.232 0.468-0.234 0.725-0.008 1.033-0.089 2.074 0.029 3.094 0.059 0.509-0.085 1.066 0.25 1.561 0.175 0.259-0.123 0.65-0.449 0.672-0.547 0.037-0.625-0.054-0.796-0.608-0.133-0.429-0.163-0.855-0.159-1.294 0.008-0.856 0-1.712-0.004-2.569 0-0.17 0.037-0.35-0.12-0.552-0.369 0.406-0.859 0.364-1.331 0.377-0.12 0.004-0.255-0.005-0.357-0.054-0.135-0.065-0.28-0.178-0.234-0.342 0.027-0.098 0.152-0.243 0.234-0.245 0.426-0.002 0.73-0.271 1.098-0.394 0.4-0.134 0.605-0.417 0.836-0.791v0.001z"></path>
<path d="M20.624 15.278c0.657-0.315 0.345-0.76 0.279-1.198 0.080-0.060 0.165-0.171 0.273-0.198 0.94-0.228 0.729-0.351 1.062 0.496 0.068 0.174 0.082 0.336 0.107 0.508 0.072 0.499 0.184 0.562 0.723 0.581 0.23 0.008 0.428-0.229 0.687-0.035 0.117 0.088 0.276 0.108 0.276 0.293 0 0.17-0.106 0.217-0.245 0.308-0.374 0.244-0.797 0.061-1.266 0.216 0 0.314-0.052 0.669 0.015 1.003 0.070 0.346-0.41 0.645 0.038 1.018-0.483 0.048-0.832 0.121-1.142-0.279-0.113-0.145-0.205-0.244-0.204-0.42 0.001-0.381 0-0.761 0-1.209-0.507 0.129-0.949 0.219-1.396 0.14-0.248-0.283-0.302-0.638-0.424-1.011 0.385 0.040 0.734-0.188 1.218-0.213v0.001z"></path>
</symbol>
<symbol id="icon-sale" viewBox="0 0 68 32">
<path d="M0.756 23.19c0.513-0.573 1.112-1.278 1.711-1.938 0.513-0.573 1.069-1.145 1.626-1.674 0.642-0.617 1.241-1.277 2.139-1.586 0.684-0.264 1.198-0.925 1.754-1.366 0.471-0.088 0.813-0.132 1.326-0.176 0.299-0.264 0.684-0.617 1.112-1.013-0.257-0.352-0.428-0.705-0.684-0.881-1.155-0.793-2.481-1.189-3.593-2.159-0.984-0.837-2.267-1.101-3.422-1.894-0.342-0.396-0.77-0.881-1.112-1.277-0.385-1.145-0.257-2.203-0.128-3.216 0.385-0.661 1.497-0.573 1.583-1.586 0-0.176 0.342-0.352 0.556-0.441 1.326-0.705 2.695-1.41 4.021-2.114 0.342-0.176 0.727-0.176 1.069-0.308 0.471-0.176 0.941-0.352 1.754-0.705 0.642-0.044 1.626-0.132 2.61-0.22 0.342-0.22 0.684-0.396 1.027-0.573 1.369-0.352 2.353 0.881 3.636 0.837 0.471 0.352 0.428 0.881 0.556 1.41 0.086 0.485 0.428 0.925 0.556 1.41 0.043 0.22-0.086 0.529-0.214 0.705-0.171 0.132-0.471 0.132-0.684 0.22-0.556-0.529-1.155-1.013-1.668-1.498h-2.695c-0.513 0.264-0.984 0.661-1.412 0.661-1.198 0-2.053 1.057-3.251 0.925-1.027 0.529-2.011 1.057-3.037 1.586-0.599 0.308-1.027 0.749-1.369 1.277 0.043 0.264 0.086 0.485 0.128 0.793 0.856 0.441 1.754 0.881 2.652 1.322 1.027 0.529 2.053 1.013 2.781 1.938 0.513 0.661 1.283 0.793 1.882 1.233 0.513 0.396 0.941 0.881 1.369 1.277h3.465c0.856 0.485 1.583 1.057 2.524 0.661 1.455-1.41 3.365-2.672 5.732-3.788h2.524c0.385 0.264 0.727 0.441 1.070 0.661 0.385 0.044 0.77 0.088 1.112 0.132 0.214 0.176 0.513 0.308 0.556 0.485 0.257 0.925 1.070 1.454 1.54 2.423 0 0.529 0.043 1.189 0.086 1.806-0.856 1.762-1.711 3.48-2.567 5.242-0.599 0.661-1.198 1.321-1.797 1.982-0.214 0.22-0.214 0.22 0.086 1.145 1.668-0.573 3.208-1.322 4.492-2.643 0.556-0.573 1.198-0.925 1.839-1.322 0.642-0.352 1.155-1.013 1.669-1.498 0.086-0.661 0.171-1.145 0.257-1.718 0.171-0.308 0.385-0.661 0.599-1.013 0-0.617 0.086-1.277 0.128-1.982 0.214-0.441 0.428-0.881 0.684-1.366 0-0.529 0.086-1.057 0.128-1.586 0.086-0.22 0.171-0.485 0.257-0.705 0.171-0.352 0.3-0.749 0.513-1.057 0.727-1.057 1.412-2.114 2.011-3.26 0.77-0.529 0.813-1.586 1.626-2.114 1.284-0.793 2.396-1.894 3.893-2.291 0.599 0 0.984 0.352 1.241 0.793 0.428 0.661 0.727 1.366 1.069 2.070 0.128 1.013 0 2.070-0.599 2.951-0.086 1.63-0.898 2.907-1.882 4.141-0.385 0.485-0.556 1.145-0.984 1.63-0.727 0.881-1.583 1.718-2.353 2.555-1.326 1.41-2.695 2.819-3.936 4.097-0.214 1.189-0.3 2.202 0 3.348 0.3 0.308 0.684 0.661 1.070 1.057 0.471-0.044 1.070 0 1.455-0.22 1.412-0.793 3.123-1.101 4.15-2.643 0-0.617-0.086-1.321 0.128-1.938 0.257-0.837 0.599-1.674 0.77-2.555 0.086-0.617 0.513-1.189 0.856-1.718 0.556-0.881 1.198-1.63 1.668-2.599 0.342-0.661 1.027-1.145 1.54-1.718 0.556-0.529 1.070-1.145 1.754-1.454 0.257 0 0.556 0 0.727 0.132 0.941 0.705 1.754 1.498 2.396 2.511 0.214 1.322 0.086 2.599 0 3.876-0.471 0.661-1.069 1.233-1.326 1.938-0.3 0.793-1.027 1.189-1.326 1.894-0.471 1.145-1.284 1.894-2.31 2.423-0.3 0.176-0.3 0.661 0 1.013 0.342-0.088 0.642-0.176 0.984-0.308 0.214 0.132 0.428 0.264 0.642 0.396 0.342-0.176 0.642-0.396 0.984-0.529 0.684-0.044 1.283-0.088 1.925-0.132 0.342-0.22 0.642-0.485 1.027-0.573 0.727-0.22 1.497-0.132 2.139-0.661 0.513-0.44 1.241-0.132 1.797-0.529 0.642-0.396 1.369-0.705 2.011-1.057 0.684-0.396 1.497-0.176 2.139-0.661 0.471-0.352 1.198-0.308 1.754-0.529 0.471-0.22 0.813-0.617 1.369-0.529 0.684 0.396 1.283 0.793 1.241 1.762-0.342 0.529-0.727 1.189-1.412 1.233-1.198 0.088-2.096 0.881-3.123 1.278-0.813 0.308-1.497 1.101-2.396 1.101-0.984 0-1.583 0.881-2.438 0.969-0.684 0.661-1.668 0.573-2.481 0.881-0.342 0.132-0.684 0.352-1.070 0.573h-5.262c-0.556 0-0.898-0.441-1.326-0.661-0.471-0.22-0.941-0.396-1.497-0.617-1.198 0.617-2.567 1.322-4.107 2.070h-3.979c-1.369-0.573-1.925-1.938-2.738-3.128h-1.155c-0.556 0.485-1.070 1.145-1.754 1.41-0.727 0.308-1.283 0.793-1.882 1.277-0.214 0.176-0.428 0.352-0.642 0.352-0.941-0.088-1.626 0.705-2.481 0.793-0.257 0-0.513 0-0.77 0-1.069-0.485-1.626-1.63-2.609-2.247-1.112 0.22-2.054 0.837-3.080 1.41-0.984 0.132-2.011 0.308-2.995 0-1.412-0.881-1.968-2.379-2.652-3.744 0-0.661-0.043-1.277-0.086-1.938-0.086-0.132-0.171-0.22-0.257-0.308-0.128 0.176-0.342 0.352-0.385 0.529-0.043 0.529 0 1.057 0 1.454-0.171 0.352-0.257 0.617-0.342 0.837-0.257 0.573-0.599 1.145-0.813 1.718-0.599 1.498-1.754 2.555-2.866 3.568-0.171 0.176-0.471 0.176-0.684 0.352-1.369 0.881-2.909 1.498-4.406 2.247h-1.497c-1.454-0.529-2.824-1.145-3.508-2.247-0.642-0.969-0.385-1.806-0.856-2.511-0.471-0.661-0.428-1.498 0.086-2.203 0.385-0.573 0.385-1.233 0.513-1.982l-0.171 0.132zM2.895 27.771c0 0 0.214 0.44 0.428 0.617 0.257 0.264 0.599 0.44 0.941 0.661 0.599-0.22 1.155-0.529 1.754-0.617 2.396-0.44 4.021-1.982 5.305-3.965 0.214-0.925 1.069-1.41 1.455-2.291-0.128-1.101 0.513-2.291-0.342-3.348h-1.198c-1.155 0.617-2.396 1.277-3.679 1.938-1.626 1.542-3.337 3.039-4.663 4.978v2.026zM22.274 23.102c0 0 0.471-0.617 0.813-0.969 0.513-0.573 1.112-1.101 1.583-1.718 0.385-0.485 0.642-1.101 0.984-1.63s0.727-1.013 1.027-1.63c0.342-0.661 0.898-1.233 1.369-1.894v-0.749c-0.727-0.793-1.626-0.352-2.481-0.308-1.711 0.969-3.351 2.349-4.92 4.141-0.171 0.881-0.941 1.542-0.941 2.511 0 1.057-1.198 1.806-0.684 2.951 0.342 0.441 0.77 0.573 1.283 0.264 0.428-0.264 0.898-0.485 1.968-1.013v0.044zM52.476 15.437c-0.214-0.485-0.599-0.617-0.898-0.485-0.642 0.308-1.283 0.749-1.754 1.057-0.3 0.617-0.556 1.013-0.77 1.498-0.086 0.22-0.171 0.485-0.171 0.705 0 0.088 0.086 0.22 0.128 0.308 0.043 0.044 0.214 0.088 0.257 0.044 1.241-0.881 2.096-2.203 3.166-3.172l0.043 0.044zM43.877 7.948c-1.412 0.793-2.096 2.070-2.481 3.612 0.171 0.22 0.385 0.264 0.684 0.132 0.128-0.044 0.257-0.088 0.3-0.176 0.385-1.013 1.241-1.63 1.711-2.511 0.171-0.352 0.086-0.749-0.214-1.057zM17.268 18.388c-0.257-0.264-0.599-0.617-0.984-1.057-0.385 0.44-0.727 0.793-0.984 1.057 0.342 0.661 0.599 1.233 0.898 1.762 0 0 0.171 0 0.257 0 0.257-0.573 0.513-1.101 0.856-1.762h-0.043z"></path>
</symbol>
<symbol id="icon-bage-animal" viewBox="0 0 32 32">
<path d="M15.705 27.766c-0.846 0.144-1.575 0.233-2.234 0.704-0.912 0.65-2.008 0.669-3.069 0.519-0.574-0.081-0.871-0.801-1.505-0.859-1.055-0.992-1.448-3.035-0.809-4.406 0.551-1.181 1.065-2.38 1.74-3.505 0.297-0.495 0.648-1.030 0.559-1.69-0.066-0.487 0.359-0.766 0.54-1.136 0.667-1.355 1.814-1.955 3.306-2.212 1.372-0.236 2.413 0.367 3.549 0.843 0.185 0.077 0.218 0.241 0.327 0.361 1.063 1.166 1.996 2.423 2.905 3.722 0.604 0.864 1.224 1.721 1.73 2.643 0.452 0.823 0.896 1.683 1.134 2.584 0.292 1.103-0.090 2.132-0.855 2.977-0.965 1.067-2.141 1.199-3.465 0.841-0.572-0.155-1.137-0.286-1.596-0.676-0.626-0.53-1.452-0.398-2.256-0.712v-0.001z"></path>
<path d="M14.14 11.098c-0.193-1.044-0.223-2.030-0.649-2.945-0.098-0.212-0.078-0.534-0.003-0.77 0.473-1.475 1.056-2.902 2.353-3.847 1.32-0.962 2.936-1.207 4.241-0.32 0.324 0.22 0.59 0.445 0.809 0.788 0.632 0.983 1.102 1.986 0.999 3.215-0.082 0.98 0.057 1.961-0.226 2.951-0.271 0.948-0.721 1.746-1.421 2.365-0.599 0.529-1.315 0.922-1.982 1.37-0.551 0.37-1.092 0.324-1.676 0.026-1.004-0.511-1.642-1.336-2.116-2.332-0.072-0.151-0.175-0.286-0.329-0.502v0.001z"></path>
<path d="M21.227 14.273c0.165-0.605 0.495-0.983 0.77-1.413 1.106-1.726 2.921-2.373 4.585-3.259 0.303-0.16 0.566-0.076 0.838 0.088 0.855 0.515 1.433 1.264 1.823 2.181 0.090 0.212 0.136 0.435 0.024 0.622-0.24 0.399-0.193 0.831-0.206 1.26-0.005 0.173 0.044 0.409-0.047 0.506-0.608 0.649-0.521 1.458-0.448 2.21 0.108 1.105-0.471 1.783-1.189 2.436-0.158 0.143-0.276 0.067-0.441 0.055-1.224-0.085-2.384-0.454-3.551-0.792-0.474-0.138-0.943-0.196-1.385-0.545-1.011-0.798-1.254-1.273-0.951-2.496 0.061-0.248 0.085-0.507 0.178-0.851h-0.001z"></path>
<path d="M11.863 9.216c0.121 0.966-0.173 1.744-0.351 2.533-0.056 0.247-0.182 0.48-0.161 0.746 0.096 1.193-0.988 1.481-1.619 2.075-0.343 0.322-1.922-0.473-2.242-1.059-0.408-0.744-0.847-1.485-1.132-2.279-0.611-1.71-0.659-3.378 0.7-4.816 0.114-0.12 0.179-0.287 0.266-0.434 0.618-1.065 1.72-1.315 2.753-1.669 0.139-0.047 0.329 0.032 0.49 0.078 1.418 0.407 2.174 1.959 1.546 3.315-0.215 0.464-0.216 0.912-0.25 1.509l-0.001 0.001z"></path>
<path d="M6.154 13.233c0.6 1.296 1.506 2.267 2.3 3.308 0.397 0.521 0.406 1.121 0.55 1.669 0.125 0.475-0.388 0.966-0.732 1.264-0.733 0.635-1.604 1.115-2.522 1.438-0.805 0.282-1.582-0.128-2.023-0.914-0.344-0.614-0.535-1.269-0.708-1.95-0.254-1.006-0.394-2.008-0.343-3.048 0.064-1.287 1.013-2.346 2.279-2.521 0.146-0.020 0.231 0.007 0.333 0.081 0.272 0.2 0.546 0.395 0.863 0.671l0.001 0.001z"></path>
</symbol>
<symbol id="icon-wow" viewBox="0 0 54 32">
<path d="M1.819 10.781c0.833-1.040 0.335-2.359 0.824-3.4 0.524-0.147 0.774 0.273 1.091 0.519 0.241 0.502 0.401 0.996 0.34 1.567-0.178 1.5-0.355 3-0.482 4.489-0.086 0.948-0.272 1.92-0.145 2.872 0.081 0.618-0.009 1.302-0.11 1.935-0.252 1.278-0.292 2.561-0.381 3.855 0.752 0.172 0.688-0.609 0.997-0.892 0.035-0.326 0.039-0.672 0.044-1.018 0.394-0.621 0.747-1.313 1.131-1.984 0.015-0.295 0.050-0.622 0.085-0.948 0.259-0.272 0.785-0.286 0.684-0.873-0.068-0.435 0.188-0.839 0.425-1.212 0.296-0.466 0.368-0.987 0.46-1.538 0.044-0.408 0.362-0.773 0.478-1.091 0.292-0.12 0.502-0.248 0.704-0.294 0.675-0.182 1.407 0.022 1.729 0.531 0.353 0.529 0.616 1.132 0.949 1.692 0.188 0.991 0.033 1.982-0.307 2.856-0.291 0.73-0.015 1.516-0.368 2.207 0.307 1.415-0.136 2.791-0.173 4.205-0.026 0.855-0.184 1.714-0.241 2.549 0.465 0.557 0.5 1.451 1.234 1.786 0.21-0.128 0.493-0.166 0.592-0.322 0.651-1.025 1.282-2.019 1.874-2.951 0.033-0.459 0.048-0.754 0.072-1.131 0.513-0.808 0.984-1.685 1.466-2.512 0.004-0.346 0.040-0.672 0.072-1.131 0.383-0.672 0.776-1.425 1.14-2.066 0.033-0.459 0.068-0.785 0.103-1.111 0.265-0.485 0.53-0.971 0.796-1.456 0.004-0.346 0.040-0.672 0.044-1.018 0.274-0.567 0.568-1.165 0.813-1.619 0.013-0.428 0.048-0.754 0.083-1.080 0.265-0.485 0.53-0.971 0.776-1.425 0.035-0.326 0.040-0.672 0.086-0.948 0.401-0.835 0.793-1.588 1.155-2.361-0.169-1.022 0.8-1.802 0.559-2.914 0.375-0.59 0.789-1.242 1.203-1.895 0.099-0.155 0.381-0.194 0.572-0.291 0.592 0.289 1.113 0.62 1.539 1.239-0.046 0.276-0.081 0.602-0.096 0.898-0.035 0.326-0.020 0.641-0.044 1.018l-1.519 2.392c-0.013 0.428-0.017 0.773-0.022 1.119-0.245 0.454-0.491 0.909-0.756 1.394 0.079 1.096-0.745 2.055-0.596 3.108-0.403 0.703-0.787 1.375-1.17 2.046-0.015 0.295-0.020 0.641-0.072 1.131-0.217 0.342-0.493 0.777-0.758 1.262-0.296 0.466-0.572 0.901-0.778 1.293-0.061 0.571 0.088 1.015-0.219 1.43-0.346 0.478-0.307 1.026-0.338 1.616-0.423 0.734-0.815 1.487-1.179 2.128-0.033 0.459-0.068 0.785-0.081 1.213l-3.235 5.094c-0.999 0.76-1.99 0.218-2.95 0.306-0.419-0.222-0.557-0.615-0.796-0.985-0.259-0.339-0.607-0.603-0.997-0.938-0.489-1.4-0.655-2.901-0.975-4.499 0.077-0.867 0.162-1.815 0.248-2.763-0.828-0.526-0.828-0.526-0.894 0.391-0.029 0.113-0.037 0.194-0.044 0.408l-1.144 1.802c-0.013 0.428-0.028 0.723-0.061 1.182-0.828 1.305-1.574 2.749-2.584 4.069-0.059 0.093-0.16 0.116-0.25 0.19-0.221 0.077-0.344-0.001-0.43-0.273-0.096-0.323-0.333-0.56-0.649-0.673-0.978-0.359-1.192-0.496-1.010-1.121 0.259-0.882-0.221-1.753-0.002-2.573 0.199-0.789-0.116-1.512-0.079-2.317 0.127-0.268 0.274-0.567 0.449-0.979-0.039-0.548-0.202-1.174-0.131-1.827 0.085-0.948 0.241-1.939 0.327-2.887 0.044-0.408 0.331-0.792 0.425-1.212s-0.105-0.851 0.121-1.275c0.178-0.28 0.355-0.559 0.39-0.886 0.101-0.633 0.121-1.275 0.11-1.935 0.013-0.428-0.085-0.882-0.112-1.248l-0.009 0.082z"></path>
<path d="M52.141 0.845c0.821 0.213 1.328 0.579 1.766 1.122-0.089 0.825 0.017 1.685-0.388 2.529-0.366 0.781-0.187 1.732-0.86 2.45-0.131 0.137-0.259 0.408-0.215 0.612 0.126 0.829-0.57 1.445-0.537 2.214 0.024 0.852-0.519 1.433-0.851 2.367-0.038 0.196-0.051 0.628-0.116 1.072-0.268 0.491-0.536 0.981-0.784 1.44 0.343 0.967-0.607 1.641-0.541 2.564 0.044 0.821-0.612 1.374-0.855 2.1-0.005 0.35-0.040 0.679-0.054 1.111-1.046 1.715-2.131 3.493-3.117 5.113-0.636 0.521-1.156 0.588-1.78 0.544l-1.301-0.826c-0.564-0.755-0.458-1.744-1.082-2.405 0.013-0.432-0.024-0.852-0.031-1.253-0.752-0.39-0.752-0.39-1.113 0.042-0.12 0.188-0.239 0.377-0.359 0.565-0.044 0.412-0.109 0.856-0.153 1.268-0.288 0.522-0.505 1.001-0.753 1.46-0.025 0.381-0.060 0.711-0.096 1.041l-0.897 1.413c-0.445 0.29-0.932 0.509-1.621 0.292-0.314-0.464-0.69-0.967-0.976-1.545-0.19-0.385-0.208-0.837-0.276-1.277 0.368-0.648-0.011-1.284 0.010-1.932 0.049-0.762 0.016-1.532 0.229-2.278 0.233-0.777-0.188-1.485-0.068-2.29 0.197-1.064 0.384-2.179 0.050-3.228 0.116-1.072 0.231-2.144 0.347-3.216 0.416-0.176 0.706 0.052 0.803 0.378 0.215 0.621 0.327 1.265 0.491 1.898 0.066 0.306 0.237 0.723 0.128 0.962-0.363 0.915 0.223 1.772 0.032 2.62-0.2 0.931 0.11 1.744 0.338 2.549 0.155 0.098 0.37 0.103 0.54-0.097 0.419-0.659 0.837-1.319 1.196-1.884 0.013-0.432 0.049-0.762 0.042-1.162 0.618-0.973 1.214-2.049 1.841-3.104 0.064-0.444 0.109-0.856 0.164-1.217l0.957-1.507c0.407-0.094 0.835-0.219 1.16-0.321 0.155 0.098 0.268 0.126 0.361 0.185 0.589 0.374 0.429 1.242 1.055 1.419-0.124 1.154-0.231 2.144-0.318 3.102-0.080 0.742-0.612 1.374-0.537 2.214 0.053 0.738-0.18 1.516-0.309 2.403 0.11 0.511 0.274 1.143 0.418 1.807 0.224-0.078 0.489-0.086 0.549-0.18 0.419-0.659 0.837-1.319 1.216-1.915 0.025-0.381 0.009-0.699 0.045-1.029 0.248-0.459 0.485-0.969 0.753-1.46 0.064-0.444 0.109-0.856 0.122-1.288 0.419-0.659 0.775-1.358 1.123-1.974 0.053-0.495-0.046-0.954 0.213-1.363 0.12-0.188 0.31-0.42 0.277-0.573-0.148-0.931 0.525-1.649 0.603-2.525 0.007-0.216 0.014-0.432 0.009-0.699 0.368-0.648 0.724-1.346 1.112-2.025 0.080-0.742 0.16-1.484 0.26-2.258s0.55-1.413 0.537-2.214c0.020-0.648 0.492-1.185 1.136-1.789l0.102-0.023z"></path>
<path d="M33.012 15.572c-0.119 0.796-0.207 1.474-0.325 2.133-0.611 0.759-0.312 1.775-0.78 2.579-0.228 0.36-0.182 0.894-0.318 1.312-0.138 0.555-0.439 1.097-0.984 1.347-0.524 0.218-0.405 0.706-0.582 1.052-0.196 0.105-0.391 0.21-0.71 0.375-0.374 0.588-0.85 1.203-1.317 1.871-0.394 0.621-1.315 0.449-1.485 1.122-1.1 0.448-2.075 0.701-3.141 0.758l-1.131-0.718c-0.41-1.178-0.502-2.52-0.747-3.823 0.428-1.012-0.045-1.955 0.137-2.986 0.268-1.435 0.372-2.883 0.549-4.377 0.436-0.687 0.79-1.379 1.226-2.066 0.498-0.784 1.027-1.55 1.535-2.282 1.061-0.657 2.102-1.418 3.485-1.503 0.645-0.003 1.234 0.692 2.055 0.479 0.251 0.618 0.78 1 1.196 1.494 0.345 0.402 0.525 0.93 0.777 1.411 0.292 0.553 0.348 1.276 0.497 1.784l0.061 0.039zM26.486 14.364l-1.702 2.681c-0.21 1.885-0.44 3.666-0.619 5.433-0.012 0.222-0.106 0.437-0.179 0.62-0.249 0.392-0.468 0.804-0.665 1.183-0.1 0.9 0.503 1.099 1.24 1.155 0.525-0.354 1.152-0.599 1.628-1.077s0.889-0.995 1.455-1.278c0.044-0.339 0.088-0.678 0.151-0.913 0.821-1.36 1.548-2.641 2.244-3.805 0.142-1.102 0.304-2.101 0.415-3.085 0.056-0.561-0.073-1.101-0.365-1.654l-0.672-0.427c-1.176-0.242-1.86 0.7-2.878 1.154l-0.051 0.013z"></path>
</symbol>
<symbol id="icon-checkmark" viewBox="0 0 29 32"> 
<path stroke-linejoin="miter" stroke-linecap="round" stroke-miterlimit="4" stroke-width="4" d="M2.667 15.030l8.872 11.636 15.128-24"></path>
</symbol>
<symbol id="icon-filter" viewBox="0 0 18 20">
<path d="M17.1176 16.1429H15C14.6471 14.8571 13.5 14 12.0882 14C10.4118 14 9 15.3714 9 17C9 18.6286 10.4118 20 12.0882 20C13.5 20 14.6471 19.1429 15 17.8571H17.1176C17.6471 17.8571 18 17.4286 18 17C18 16.4857 17.6471 16.1429 17.1176 16.1429ZM12.0882 18.2857C11.3824 18.2857 10.7647 17.6857 10.7647 17C10.7647 16.3143 11.3824 15.7143 12.0882 15.7143C12.7941 15.7143 13.4118 16.3143 13.4118 17C13.4118 17.6857 12.7941 18.2857 12.0882 18.2857Z" fill="#1F1F1F"/>
<path d="M7.14894 16H0.851064C0.340425 16 0 16.5 0 17C0 17.6 0.425532 18 0.851064 18H7.14894C7.65957 18 8 17.5 8 17C8 16.4 7.57447 16 7.14894 16Z" fill="#1F1F1F"/>
<path d="M0.851064 4H7.14894C7.65957 4 8 3.5 8 3C8 2.5 7.57447 2 7.14894 2H0.851064C0.340425 2 0 2.5 0 3C0 3.5 0.425532 4 0.851064 4Z" fill="#1F1F1F"/>
<path d="M12.0882 6C13.5 6 14.6471 5.14286 15 3.85714H17.1176C17.6471 3.85714 18 3.42857 18 3C18 2.57143 17.5588 2.14286 17.1176 2.14286H15C14.6471 0.857143 13.5 0 12.0882 0C10.4118 0 9 1.37143 9 3C9 4.62857 10.4118 6 12.0882 6ZM12.0882 1.71429C12.7941 1.71429 13.4118 2.31429 13.4118 3C13.4118 3.68571 12.7941 4.28571 12.0882 4.28571C11.3824 4.28571 10.7647 3.68571 10.7647 3C10.7647 2.31429 11.3824 1.71429 12.0882 1.71429Z" fill="#1F1F1F"/>
<path d="M0.882353 10.8571H3C3.35294 12.0571 4.5 13 5.91176 13C7.58824 13 9 11.6286 9 10C9 8.37143 7.58824 7 5.91176 7C4.5 7 3.35294 7.85714 3 9.14286H0.882353C0.352941 9.14286 0 9.57143 0 10C0 10.4286 0.441176 10.8571 0.882353 10.8571ZM5.91176 8.71429C6.61765 8.71429 7.23529 9.31429 7.23529 10C7.23529 10.6857 6.61765 11.2857 5.91176 11.2857C5.20588 11.2857 4.58824 10.6857 4.58824 10C4.58824 9.31429 5.20588 8.71429 5.91176 8.71429Z" fill="#1F1F1F"/>
<path d="M17.1398 9H10.8602C10.3441 9 10 9.5 10 10C10 10.5 10.4301 11 10.8602 11H17.1398C17.6559 11 18 10.5 18 10C18 9.5 17.6559 9 17.1398 9Z" fill="#1F1F1F"/>
</symbol>
<symbol id="icon-search" viewBox="0 0 20 20" >
<g clip-path="url(#clip0_3526_695)" >
<path fill-rule="evenodd" clip-rule="evenodd" d="M8.38235 1.66667C4.67338 1.66667 1.66667 4.67338 1.66667 8.38235C1.66667 12.0913 4.67338 15.098 8.38235 15.098C12.0913 15.098 15.098 12.0913 15.098 8.38235C15.098 4.67338 12.0913 1.66667 8.38235 1.66667ZM0 8.38235C0 3.75291 3.75291 0 8.38235 0C13.0118 0 16.7647 3.75291 16.7647 8.38235C16.7647 10.397 16.054 12.2456 14.8696 13.6911L19.7559 18.5774C20.0814 18.9028 20.0814 19.4305 19.7559 19.7559C19.4305 20.0814 18.9028 20.0814 18.5774 19.7559L13.6911 14.8696C12.2456 16.054 10.397 16.7647 8.38235 16.7647C3.75291 16.7647 0 13.0118 0 8.38235Z" fill="#797979"/>
</g>
</symbol>
<symbol id="icon-checkmark1" viewBox="0 0 32 32">
<path d="M12.637 31.213c1.395 0 2.448-0.534 3.162-1.606l15.45-23.28c0.256-0.381 0.448-0.755 0.566-1.12 0.125-0.384 0.186-0.746 0.186-1.088 0-0.96-0.336-1.754-1.005-2.378-0.608-0.591-1.438-0.955-2.354-0.955-0.031 0-0.062 0-0.092 0.001l0.005-0c-0.672 0-1.238 0.131-1.709 0.4-0.458 0.256-0.893 0.704-1.306 1.341l-12.97 20.368-6.496-7.782c-0.618-0.749-1.547-1.223-2.587-1.223-0.020 0-0.040 0-0.059 0.001l0.003-0c-0.992 0-1.811 0.32-2.461 0.954-0.599 0.585-0.971 1.4-0.971 2.303 0 0.032 0 0.064 0.001 0.096l-0-0.005c0 0.435 0.064 0.848 0.202 1.238 0.144 0.378 0.406 0.774 0.787 1.187l8.618 10.16c0.794 0.928 1.802 1.389 3.030 1.389z"/>
</symbol>
<symbol id="icon-radio-true" viewBox="0 0 32 32">
<path d="M16 2.667c-7.36 0-13.333 5.973-13.333 13.333s5.973 13.333 13.333 13.333 13.333-5.973 13.333-13.333-5.973-13.333-13.333-13.333zM16 26.667c-5.893 0-10.667-4.773-10.667-10.667s4.773-10.667 10.667-10.667 10.667 4.773 10.667 10.667-4.773 10.667-10.667 10.667z"></path>
<path d="M16 22.667c3.682 0 6.667-2.985 6.667-6.667s-2.985-6.667-6.667-6.667v0c-3.682 0-6.667 2.985-6.667 6.667s2.985 6.667 6.667 6.667v0z"></path>
</symbol>
</defs>
</svg>

